<?xml version="1.0" standalone="no"?>
<!DOCTYPE svg PUBLIC "-//W3C//DTD SVG 1.1//EN" "http://www.w3.org/Graphics/SVG/1.1/DTD/svg11.dtd" >
<svg xmlns="http://www.w3.org/2000/svg">
<metadata></metadata>
<defs>
<font id="pwschoolscriptmedium" horiz-adv-x="899" >
<font-face units-per-em="2048" ascent="1638" descent="-410" />
<missing-glyph horiz-adv-x="1312" />
<glyph horiz-adv-x="2048" />
<glyph horiz-adv-x="2048" />
<glyph unicode="&#xd;" horiz-adv-x="681" />
<glyph unicode=" " horiz-adv-x="1312" d="M0 0v25h1339v-25h-1339zM0 1432v8h1323v-8h-1323zM2 717v8h1325v-8h-1325zM4 1071v8h1323v-8h-1323zM6 354v8h1325v-8h-1325z" />
<glyph unicode="!" d="M0 0v25l299 -2q-14 20 -10 43l12 67q6 25 25.5 39t44 9t39 -24t10.5 -44l-12 -68q-4 -12 -11 -22l529 -3v-24l-561 2q-12 -4 -27 -2q-4 2 -8 2zM0 1432v8h477q10 61 19 116q6 25 25.5 39.5t44 9t38.5 -24.5t10 -44l-16 -96h326v-8h-328l-53 -355h379v-8h-379l-15 -96 q-20 -147 -36 -252l432 -2v-8l-435 2q-29 -170 -59 -307q-6 -35 -41 -46l533 -2v-8l-916 4v8l350 -2q-23 8 -35 28t-6 42q29 129 56 285l-369 2v8l369 -2q18 106 41 266l10 82h-418v8h420q33 240 51 353h-475z" />
<glyph unicode="&#x22;" d="M0 0v25l926 -5v-24zM0 1432v8h231l33 108q8 23 30.5 34t45 4t34 -29.5t5.5 -45.5l-25 -71h170l27 69q8 25 30.5 34t46 1t33 -30.5t1.5 -45.5l-11 -28h273v-8h-277q-66 -182 -98 -355h373v-8h-375q-12 -61 -19 -121q-4 -25 -23.5 -40t-43 -12t-38.5 22.5t-13 42.5 q6 55 16 110h-158q-2 -39 -4 -74q0 -25 -18.5 -41t-43 -16t-41 18.5t-16.5 42.5l5 70h-146v8h148q14 147 75 353h-227zM2 717v8l922 -6v-8zM6 354v8l916 -4v-8zM270 1079h158q31 173 94 353h-170q-66 -213 -82 -353z" />
<glyph unicode="#" horiz-adv-x="1312" d="M0 0v25h276q-10 16 -8 34q8 119 27 248l-33 -8q-23 -6 -44 6t-28 37q-2 6 -2 12h-182v8h182q4 41 45 52l80 22q20 127 54 281h-365v8h367l24 117l-139 -35q-25 -6 -45.5 6t-26.5 36.5t6.5 45t36.5 27.5l199 51l22 98h-442v8h445l75 346v7h-524v8h528q20 41 66 30 q29 -4 41 -30h270l35 137q6 25 26.5 37t45 6t37 -26.5t6.5 -45.5l-27 -108h295v-8h-297l-88 -349q125 20 236 27q39 2 55 -31h98v-8h-94q4 -8 4 -16q2 -25 -14.5 -43.5t-40.5 -20.5q-129 -6 -277 -33l-55 -233h477v-8h-479l-29 -131q98 25 185 41q25 4 45 -10.5t24 -39 t-10 -45t-39 -24.5q-115 -18 -233 -51l-17 -95h557v-8h-559q-33 -174 -53 -329h620v-25h-622q-4 -25 -23.5 -39t-44.5 -12q-18 2 -32.5 16.5t-18.5 34.5h-248q-12 -4 -26 -4q-8 0 -19 4h-305zM379 25h221q18 156 51 329h-196l-35 -10q-25 -154 -33 -293q-2 -14 -8 -26z M440 473l170 53l80 25l35 166h-238zM481 362h172l11 56l-19 -4zM489 725h238l51 209q-104 -20 -254 -60zM553 1004q145 37 256 57l2 10h-244zM569 1079h244l90 353h-264q4 -14 0 -31q-25 -127 -70 -322z" />
<glyph unicode="$" d="M0 0v25h135q-78 78 -67 192q2 25 21.5 41t43 14t39.5 -21.5t14 -41.5q-6 -80 60 -123q43 -27 108 -37q10 129 33 303l-381 2v8l381 -2l25 197q-72 31 -117 57q-76 45 -119 101l-174 2v8l168 -2q-33 43 -49 94q-8 29 -6 88q0 25 4 70q4 49 16 96h-131v8h133 q29 109 94.5 202t155.5 151h-387v8h399q53 31 109 45l10 121q2 25 21.5 40t44 13t40 -21.5t13.5 -44.5l-8 -94q72 -2 143 -29q23 -8 33 -30h119v-8h-115q4 -18 -2 -37q-8 -23 -30.5 -33t-45.5 -2q-55 20 -113 20l-26 -303h330v-8h-332q-14 -158 -29 -283l-8 -65l371 -2v-8 l-371 2l-10 -80l28 -12q150 -63 215 -140q47 -53 66 -123h70v-8h-68q16 -70 4 -153q-14 -102 -113 -177h181v-24h-219l-5 -2q-104 -57 -237 -68q-4 -61 -6 -121q0 -25 -18.5 -41t-43 -16t-41 18.5t-16.5 43.5q2 57 6 120q-96 12 -164 56q-10 6 -18 14h-164zM233 901 q-2 -39 3 -47q23 -78 110 -131h88l8 76q25 219 29 270l-213 2q-16 -51 -20 -104q-4 -41 -5 -66zM260 1079l211 -2q11 99 25 277q-80 -35 -142.5 -107.5t-93.5 -167.5zM360 715q29 -17 68 -35l4 35h-72zM473 47q98 10 172 51q86 47 94 115q12 82 -10 137l-223 2 q-23 -176 -33 -305zM506 360l219 -2q-10 25 -29 45q-47 56 -170 107z" />
<glyph unicode="%" horiz-adv-x="1312" d="M0 0v25h201q49 154 135 329h-330v8h334q68 133 195 355h-533v8h537l116 201l80 145h-282q-33 -82 -91 -117q-49 -31 -133 -12q-109 20 -139 115q-2 8 -4 14h-82v8h80q-14 61 8 146q14 49 41 106l-8 4q-18 16 -21.5 40t11.5 44l10 13h-125v8h131q115 137 217 112 q76 -16 115 -112h477l51 86q12 20 37 26.5t45.5 -6t26.5 -37t-6 -45.5l-15 -24h244v-8h-250l-199 -353h453v-8h-457l-112 -203l-82 -143h651v-8h-655q-141 -242 -199 -355h197l18 27q29 41 53 70q82 94 166 104q94 10 156.5 -40t87.5 -130q4 -16 8 -31h172v-8h-170 q29 -137 -24 -250q-6 -16 -41 -65l-11 -14h254v-25h-270q-16 -23 -27 -31q-70 -59 -180 -63q-133 -4 -182 94h-363q-10 -31 -18 -59q-6 -25 -28.5 -36t-46 -5t-35 28.5t-5.5 44.5l9 27h-193zM203 1096q2 -10 8 -17h113q25 35 36 95q20 98 2 186q-12 53 -32 72h-2 q-2 -7 -6 -13q-82 -106 -115 -225q-16 -63 -4 -98zM219 1071q12 -8 35 -14q37 -6 47 0q8 4 16 14h-98zM326 25h344q-24 84 39 213q-25 -6 -47 8q-20 14 -24.5 38.5t9.5 45.5l19 24h-197q-92 -178 -143 -329zM457 1079h282l197 353h-471q8 -23 14 -48q25 -113 -2 -235 q-8 -37 -20 -70zM786 55q12 -33 72 -30q70 2 107 34l8 13l24 32l33 50q18 39 21 94t-13 106h-114q-63 -82 -101 -153q-55 -106 -37 -146zM930 362h106q-28 84 -102 84q31 -37 2 -75z" />
<glyph unicode="&#x26;" horiz-adv-x="1312" d="M0 0v25h113q-10 6 -19 14q-102 100 -41 270q8 23 19 45h-66v8h70q14 29 88 158q6 10 125 197h-287v8h293l72 115q-100 137 -129 231h-234v8h232q-2 12 -7 25q-25 137 9 213q23 53 90 115h-328v8h338q47 41 98 71q78 45 144 50q92 6 141 -68q16 -23 20 -53h582v-8h-580 q4 -27 0 -58q-4 -55 -32 -129q-25 -74 -72 -166h192q18 16 43 15q20 -2 35 -15h418v-8h-409q14 -18 12 -41q-10 -152 -66 -305h463v-8h-465q-33 -92 -80 -178q106 -115 138 -152l20 -25h391v-8h-385q31 -39 111 -151q78 -113 133 -166l8 -12h141v-25h-133q2 -29 -16 -49 q-18 -16 -43 -16.5t-43 16.5l-43 49h-1061zM166 270q-33 -94 4 -139q8 0 18 4q35 8 88 39q96 53 150 100q43 37 82 80h-303q-25 -47 -39 -84zM209 362h305q68 74 121 160l-139 156l-33 39h-33l-65 -103l-62 -98l-37 -57q-4 -6 -24 -41zM236 25h804q-33 41 -82 108 q-92 133 -129 176l-38 45h-127q-74 -94 -160 -170q-61 -53 -168 -112q-57 -33 -100 -47zM348 1124q2 -20 12 -45h144q66 121 96 205q23 61 27 102q2 31 -4 41l-5 5h-73q-25 -8 -49 -23q-51 -31 -94.5 -73t-53.5 -64q-20 -45 0 -148zM365 1071q22 -51 69 -119l29 49l37 70 h-135zM434 725h23l-13 16zM510 848l76 -92l26 -31h125q63 158 74 313q2 18 12 33h-188q-31 -57 -70 -127zM573 1440h33q-8 2 -20 2q-7 0 -13 -2zM621 717l75 -86q20 43 39 86h-114zM670 362h112l-63 70z" />
<glyph unicode="'" d="M0 0v25l926 -5v-24zM0 1432v8h365l36 86q10 23 33 31t46.5 -1.5t31.5 -32t0 -46.5l-16 -37h428v-8h-432q-106 -244 -148 -353l578 -2v-8l-580 2q-45 -123 -74 -235q-6 -25 -26.5 -37.5t-45 -6t-37 27t-5.5 44.5q23 96 61 207h-211v8h215q45 127 143 353h-362zM2 717v8 l922 -6v-8zM6 354v8l916 -4v-8z" />
<glyph unicode="(" d="M0 0v25h229q-53 145 -65 329h-158v8h158q-8 152 10 320l4 33l-176 2v8l178 -2q25 178 78 348h-254v8h256q63 201 152 353h-412v8h418q20 35 41 65q14 18 38.5 23.5t45.5 -8.5q18 -14 23 -37t-7 -43h365v-8h-371q-98 -141 -168 -353l537 -2v-8l-539 2q-57 -170 -82 -348 l623 -4v-8l-625 4q-4 -23 -6 -47q-18 -162 -10 -308l639 -2v-8l-639 2q14 -190 73 -329l570 -3v-24l-559 2q25 -49 55 -90q14 -20 10 -44t-24.5 -39t-44 -11t-39.5 24q-51 72 -86 160z" />
<glyph unicode=")" d="M0 0v25l344 -2q88 215 115 329l-453 2v8l455 -2l2 2q37 170 24 351l-485 4v8l485 -4q-12 166 -67 350h-416v8h414q-49 156 -133 344l-4 9h-281v8h279q-6 43 34 61q23 10 45.5 2t32.5 -30l17 -33h516v-8h-514q84 -190 131 -355h381v-8h-379q53 -180 63 -348l318 -2v-8 l-318 2q12 -182 -22 -353l338 -2v-8l-340 2l-4 -14q-27 -125 -105 -315l453 -3v-24l-463 2l-57 -141q-8 -23 -31 -32t-46.5 -1t-32.5 30.5t-1 47.5l39 96z" />
<glyph unicode="*" d="M0 0v25l926 -5v-24zM0 1432v8h80q-2 25 12 45q16 18 41 21t43 -11q31 -25 66 -55h102l8 59q4 23 24.5 38t44 11t39 -24.5t11.5 -44.5q-4 -18 -6 -39h121q51 49 102 90q18 14 43 11t41 -21q14 -18 12 -41t-18 -39h158v-8h-168q-76 -61 -154 -146q84 16 156 25 q23 2 42 -13.5t22 -39t-12 -43t-40 -23.5q-98 -12 -235 -41q45 -41 86 -74h301v-8h-289q35 -27 72 -47q20 -12 26 -35.5t-6 -45t-35.5 -28t-46.5 6.5q-94 57 -197 149q0 -145 -4 -221q-2 -25 -19 -42.5t-42 -15t-42 19.5t-15 42q2 39 2 84l-80 -117q-14 -20 -38 -25.5 t-44.5 9t-25.5 38t9 44.5l129 186h-118q-29 -6 -58 -10q-23 -2 -41 10h-55v8h45q-12 14 -16 33q-2 25 12 44.5t39 23.5q88 12 213 41q-121 123 -195 180q-14 12 -20 31h-82zM2 717v8l922 -6v-8zM6 354v8l916 -4v-8zM201 1079h82l14 19zM250 1432q39 -35 86 -82q4 43 8 82 h-94zM451 1294q66 76 127 138h-115q-8 -64 -12 -138z" />
<glyph unicode="+" d="M0 0v25l494 -2q-27 16 -29 47q-2 18 -23 282l-436 2v8l434 -2q-4 66 -8 119q-197 -59 -340 -69q-25 -2 -43 14t-20 40.5t14 43t41 20.5q131 8 340 72q-2 59 -2 115l-420 2v8l420 -2q-4 197 20 348h-438v8h440q4 25 11 47q4 25 24.5 38.5t45 8t37.5 -26t7 -44.5l-4 -25 h357v-8h-359q-27 -147 -24 -348l385 -2v-8l-383 2q0 -37 2 -76q156 49 245 68q25 6 45.5 -7.5t25.5 -38t-8 -45t-38 -24.5q-90 -20 -264 -76q4 -63 12 -154l361 -2v-8l-361 2q20 -229 23 -274q2 -37 -31 -55l373 -3v-24zM0 1432v8h924v-8h-924z" />
<glyph unicode="," d="M0 0v25l246 -2q23 72 33 139q4 25 23.5 39t44 11t38.5 -22.5t12 -44.5q-10 -61 -28 -122l557 -3v-24l-564 2q-20 -57 -96 -236q-10 -23 -33.5 -30.5t-46 1.5t-31 32.5t0.5 46.5q68 151 80 186zM0 1432v8h924v-8h-924zM2 717v8l922 -6v-8zM4 1071v8l918 -2v-8zM6 354v8 l916 -4v-8z" />
<glyph unicode="-" d="M0 0v25l926 -5v-24zM0 1432v8h924v-8h-924zM2 717v8l922 -6v-8zM4 1071v8l918 -2v-8zM6 354v8l916 -4v-8zM80 589.5q-2 24.5 14 43t41 20.5q33 2 289 33q182 20 301 21q25 0 42 -17.5t17 -42t-17 -42t-42 -17.5q-102 0 -287 -21l-295 -32q-25 -2 -43 14t-20 40.5z" />
<glyph unicode="." d="M0 0v25l926 -5v-24zM0 1432v8h924v-8h-924zM2 717v8l922 -6v-8zM4 1071v8l918 -2v-8zM6 354v8l916 -4v-8zM147 102.5q0 24.5 17.5 42t42 17.5t42 -17.5t17.5 -42t-17.5 -42t-42 -17.5t-42 17.5t-17.5 42z" />
<glyph unicode="/" d="M0 0v25h127q-12 20 -6 45q33 135 86 284h-201v8h203q51 143 141 353l-348 2v8l350 -2l43 98l107 248l-498 2v8l500 -2q84 201 131 355h-635v8h637q16 55 31 108q6 25 27.5 37t45 6t35.5 -27.5t6 -43.5q-12 -45 -22 -80h164v-8h-166q-45 -158 -125 -355h289v-8h-293 l-125 -295l-23 -53l443 -2v-8l-445 2q-94 -215 -143 -353l586 -2v-8l-590 2q-61 -166 -96 -311q-2 -10 -7 -16l697 -5v-24l-729 4q-16 -6 -33 -2q-2 0 -6 2h-158z" />
<glyph unicode="0" d="M0 0v25l256 -2q-47 41 -82 106q-45 84 -80 225h-88v8h86l-4 15q-35 143 -27 340h-59v8h59q8 160 43 305q6 20 11 41h-111v8h113q63 225 182 353h-299v8h305q74 76 164 110q4 14 12 25q16 18 41 20t43 -14q70 -61 123 -141h236v-8h-232q98 -152 139 -355h91v-8h-88 q31 -168 18 -350h72v-8h-72q-14 -188 -70 -353h140v-8h-142l-2 -4q-47 -135 -119 -231q-43 -57 -92 -92l359 -3v-24l-398 2q-53 -27 -108 -31q-72 -4 -129 31zM180 715q-8 -180 23 -309l10 -44l444 -2l11 27q53 152 65 326zM180 723l553 -2q12 182 -22 348l-471 2 q-10 -33 -19 -67q-33 -133 -41 -281zM217 354q27 -104 62 -168q57 -104 133 -100q82 4 153 100q49 66 88 166zM242 1079l467 -2q-45 216 -164 355h-51q-166 -78 -252 -353zM512 1440h27l-9 8q-4 -4 -10 -4z" />
<glyph unicode="1" d="M0 0v25l356 -2v6q2 117 39 323l-389 2v8l391 -2l25 148q16 98 31 207l-451 2v8l451 -2q18 137 41 346l-166 2l-111 -123q-16 -18 -40.5 -18t-43 16.5t-18.5 41t16 42.5l37 41h-164v8h172l240 279l63 74h-479v8h485l19 22l49 56l22 18q8 8 17 12q10 6 22 6q33 2 52 -22 q6 -6 10 -14.5t4 -14.5v-4v-12q0 -6 -1 -17.5t-3 -29.5h248v-8h-250v-9l-23 -135l-16 -86l-12 -82l-9 -43h308v-8h-308l-41 -348l351 -2v-8l-353 2l-30 -221l-23 -132l404 -2v-8l-406 2q-39 -217 -41 -327v-2l451 -3v-24l-459 2q-16 -31 -53 -31q-35 0 -52 31zM334 1079 l162 -2v8q0 6 39 222v8l-29 -35z" />
<glyph unicode="2" d="M0 0v25h90q-4 4 -8 10q-27 31 -27 76q-2 57 37 145q20 45 51 98h-137v8h144q16 31 63 101l168 252l-379 2v8l385 -2q76 117 131 213l70 133l-395 2v-12q0 -25 -17.5 -42.5t-42 -17.5t-42 17.5t-17.5 42.5v12h-70v8h70q10 94 92 209q55 76 129 144h-295v8h305l57 47 q129 94 234 98q68 2 118 -35t70 -110h140v-8h-138q29 -100 -26 -261q-16 -45 -37 -94h199v-8h-203q-37 -80 -98 -190q-45 -80 -95 -158l398 -2v-8l-402 2l-211 -316l-22 -37l633 -2v-8l-639 2q-53 -82 -82 -145q-27 -63 -27 -94q100 -10 268 63q16 8 69.5 32.5t81.5 36 t73 28t82 22.5q25 6 45 -7.5t25 -38t-8 -45t-38 -24.5q-31 -8 -69.5 -21.5t-63.5 -23.5t-76 -33.5t-71 -33.5q-68 -29 -117 -45l551 -3v-24l-645 2q-61 -10 -119 -4q-14 2 -27 6h-135zM195 1079l397 -2q35 70 55 133q43 127 25 193q-4 16 -10 29h-166q-31 -16 -64 -41 q-98 -72 -170 -172q-57 -80 -67 -140zM512 1440h143q-18 27 -55 26t-88 -26z" />
<glyph unicode="3" d="M0 0v25h129q-18 10 -35 24q-18 16 -20 41t14 43.5t41 20.5t43 -15q53 -49 149.5 -34.5t198.5 85.5q100 70 158 162l-672 2v8l676 -2q57 92 45 170q-14 94 -59 125q-35 23 -109 19q-20 -2 -71.5 -8.5t-73.5 -6.5q-96 -2 -135 56l-277 2v8l272 -2q-4 6 -6 12q-6 12 -6 24.5 t2 18.5l2 6q2 6 8 15q4 10 17 26l45 62l33 39l28 37q10 12 13 16q39 49 67 90l-325 2q-4 -14 -9 -24q-6 -25 -27.5 -37.5t-44 -6t-35.5 26t-9 41.5h-23v8h25q20 74 77.5 171.5t131.5 181.5h-238v8h244q201 225 377 192q76 -14 100 -76q23 -53 24 -116h179v-8h-179 q0 -106 -59 -238q-27 -55 -63 -117h299v-8h-304q-45 -72 -114 -164q-2 -2 -12 -16l-29 -37l-33 -39l-27 -35h9q18 0 61 6q55 6 80 9q111 6 178 -37q23 -14 43 -37h150v-8h-144q49 -59 66 -164q12 -90 -31 -189h107v-8h-109q-68 -147 -223 -256q-61 -43 -129 -71l465 -3v-24 l-535 2q-119 -33 -213 2h-178zM154 1079l327 -2q61 90 97 168q49 106 49 187h-221q-39 -33 -78 -76q-121 -139 -174 -277zM414 1440h211q-1 36 -13 69q-2 2 -12 4q-78 16 -186 -73z" />
<glyph unicode="4" d="M0 0v25l631 -2q-6 160 0 329h-123q-57 -23 -115 -43q-104 -37 -168 -49q-41 -8 -69 -6q-55 2 -78 43q-6 12 -6 27v10q2 4 2 10q2 2 4 10h-72v8h74l12 29l39 98q55 131 74 168l28 58l-231 2v8l236 -2q119 250 170 348h-404v8h410q109 207 215 353h-629v8h635l65 84 q14 18 39 20t44.5 -13t21.5 -40t-14 -45l-7 -6h140v-8h-146q-115 -143 -231 -355h375v-8h-379q-63 -115 -174 -346l288 -2l9 70q4 25 23.5 40t43 12t38.5 -22.5t13 -42.5l-6 -59h146v-8h-148q-18 -178 -24 -353h170v-8h-172q-6 -168 0 -330h176v-24h-174q0 -43 4 -92 q2 -25 -14.5 -43.5t-41 -20.5t-43 14.5t-20.5 41.5q-4 51 -6 102zM215 379q51 12 139 43q94 33 279 108q4 2 8 2q6 90 16 181l-292 2l-54 -111q-10 -23 -69 -162zM528 360h105v41z" />
<glyph unicode="5" d="M0 0v25h63q-25 35 -38 77q-6 25 5 46.5t34.5 28.5t45 -4t29.5 -34q33 -102 144 -104q106 -2 235 67q145 80 217 248l-729 4v8l733 -4q63 156 35 304l-12 51l-443 2l-49 -35q-59 -41 -88 -55q-23 -14 -43 -19q-35 -8 -63 8q-10 6 -17.5 16.5t-9.5 16.5l-2 6v13v12 q0 10 2 27l2 12h-49v8h51q2 23 6 49q14 88 23 123q8 43 20 123l7 51h-105v8h105q8 47 12 78q10 57 24 103q-23 -6 -42 5t-27 33q-6 23 4 45.5t35 30.5l94 31q6 10 14 18q2 4 6 9h-229v8h240q31 18 61 0h8q289 100 447 141q23 6 44 -6t27.5 -35.5t-6 -45t-37.5 -28.5l-94 -26 h234v-8h-260q-111 -33 -373 -125q-33 -63 -51 -170q-6 -27 -11 -58l693 -2v-8l-695 2l-8 -65q-12 -86 -22 -134q-6 -31 -19 -112l25 18q156 109 225 144q160 82 270 43q133 -45 185 -246h41v-8h-39l4 -25q33 -160 -23 -328h56v-8h-58q-76 -213 -252 -327l314 -3v-24l-355 2 q-154 -84 -290 -82q-125 2 -199 84h-82zM332 723l426 -2q-33 111 -96 131q-66 23 -181 -37q-59 -31 -149 -92z" />
<glyph unicode="6" d="M0 0v25h133q-39 57 -53 153q-10 72 -8 176h-66v8h66q0 8 2 19q-4 12 0 25v8q4 135 35 303h-107v8h109q39 190 102 346h-209v8h211l2 6q104 246 258 347h-475v8h487q121 74 263 51q20 -4 33.5 -18.5t17.5 -32.5h123v-8h-123v-9q-4 -25 -24.5 -40t-43.5 -11 q-233 37 -389 -293l578 -2v-8l-580 2l-14 -33q-59 -139 -97 -315h13l18 22q92 111 204 165.5t212 33.5q80 -16 130 -74.5t71 -150.5h45v-8h-45q14 -74 6 -162q-8 -94 -49 -191h86v-8h-91q-82 -188 -249 -327l344 -3v-24l-375 2q-51 -39 -98 -58.5t-105.5 -19.5t-122.5 25 q-43 18 -75 55h-150zM190 354q-2 -98 9 -159q16 -117 71 -140q63 -23 109.5 -13.5t103.5 54.5q137 104 217 254zM190 362l515 -4q53 102 61 203q8 90 -8 152l-363 2q-23 -23 -43 -47q-83 -103 -159 -285q-2 -12 -3 -21zM227 700l11 15h-9zM403 723l353 -2q-27 90 -103 106 q-49 10 -116.5 -15.5t-133.5 -88.5z" />
<glyph unicode="7" d="M0 0v25h121q-16 23 -10 49q27 127 82 280h-187v8h191q10 31 106 271l33 82l-334 2v8l338 -2q98 258 141 346l-477 2v8l479 -2l27 56q82 166 139 241l13 19q-10 -4 -17 -4q-297 -66 -534 -41q-25 2 -40.5 21.5t-13.5 43.5q2 10 6 19h-63v8h68q20 30 55 26q217 -23 498 37 q6 2 34 10l45 13q33 8 54 12q14 2 24 4q25 0 43 -10q23 -14 33 -39t0 -49v-4h70v-8h-74q-8 -16 -27 -39l-39 -41q-25 -27 -41 -47q-49 -68 -127 -226v-2h306v-8h-310q-55 -111 -145 -348l457 -2v-8l-461 4l-49 -127l-90 -228l598 -2v-8l-603 2q-63 -170 -94 -303 q-2 -14 -12 -24l713 -5v-24zM780 1423h2h-2z" />
<glyph unicode="8" d="M0 0v25h182q-115 37 -155 120q-45 90 6 209h-27v8h29q23 47 57 99q82 115 223 254l-313 2v8l322 -2l43 41l-121 115q-113 111 -162 192h-80v8h76q-10 18 -19 37q-53 115 0 213q31 57 93 103h-154v8h166q18 14 43 26q82 45 183.5 69t176.5 19q154 -6 295 -61 q37 -14 39 -53h21v-8h-21q0 -6 -2 -11q6 -10 8 -24q18 -168 -75 -320h88v-8h-93q-29 -43 -69.5 -90t-65 -71.5t-85 -79t-70.5 -64.5l30 -29l13 -14l342 -2v-8l-334 2q180 -193 194 -355h138v-8h-136q6 -100 -45 -198q-47 -88 -200 -129l385 -3v-24l-551 2h-43zM133.5 198.5 q26.5 -55.5 134.5 -73.5q117 -20 234 10q111 29 133 74q39 69 31 143l-500 2q-59 -100 -32.5 -155.5zM168 1165q18 -41 55 -86l465 -2q121 147 103 307v11q-84 29 -170 37h-132q-127 -16 -223 -70q-74 -39 -98 -88q-27 -47 0 -109zM170 362l496 -2q-16 123 -183 291l-30 31 q-176 -168 -263 -291q-12 -14 -20 -29zM229 1071q39 -47 101 -108l123 -117l2 2l61 57l62 58q23 20 53 51l51 55z" />
<glyph unicode="9" d="M0 0v25h180q-2 20 11.5 38.5t35.5 22.5q203 45 340 266l-561 2v8l565 -2q23 35 41 74q39 76 70 168q-121 -88 -203 -113q-274 -80 -385 78q-41 61 -49 150h-43v8h43q-6 94 25 207q20 70 53 139h-119v8h123q63 129 156 232q68 74 141 121h-424v8h436q106 63 213 69 q102 6 166 -69h109v-8h-103q43 -57 62 -154q14 -88 10 -201h29v-8h-29q-2 -45 -8 -94q-16 -133 -47 -256h86v-8h-88q-45 -186 -117 -330l-10 -23h213v-8h-217q-125 -231 -310 -327l531 -3v-24l-584 2q-43 -16 -90 -27q-43 -10 -64 29h-188zM164 715q6 -49 29 -80 q61 -88 253 -31q68 21 183 109zM164 723l475 -2q67 52 94 70q20 98 33 200q6 37 8 78l-518 2q-47 -86 -72 -172q-29 -98 -20 -176zM262 1079l512 -2q4 104 -8 178q-12 72 -41 107q-25 31 -68 29q-147 -8 -286 -160q-62 -68 -109 -152z" />
<glyph unicode=":" d="M0 0v25l297 -2q-2 6 -2 10l-4 63q-2 25 14.5 43.5t41 20.5t43 -14.5t20.5 -41.5l4 -63q0 -10 -2 -18l514 -3v-24l-527 2q-16 -18 -41 -21q-31 -2 -49 21zM0 1432v8h924v-8h-924zM2 717v8l922 -6v-8zM4 1071v8l918 -2v-8zM6 354v8l916 -4v-8zM303 813.5q-8 22.5 2 44.5 l29 64q10 23 32.5 31t45 -2.5t30.5 -33t-2 -45.5l-28 -63q-10 -23 -33 -31t-45.5 2.5t-30.5 33z" />
<glyph unicode=";" d="M0 0v25l424 -2q8 45 6 120q0 25 16.5 43.5t41 18.5t43 -16.5t18.5 -41.5q2 -76 -4 -124l381 -3v-24l-385 2q-6 -35 -17 -68q-25 -68 -108 -188q-14 -20 -39 -24.5t-45.5 10t-24.5 39t10 45.5q76 104 95 157l8 29zM0 1432v8h924v-8h-924zM2 717v8l922 -6v-8zM4 1071v8 l918 -2v-8zM6 354v8l916 -4v-8zM346 872l8 23q4 6 11 14l30 45q18 27 49 27q41 25 74 -10q16 -18 16.5 -43t-18.5 -41l-49 -47l-14 -15q-10 -8 -17 -12q-2 -2 -5 -4t-13 -4t-21 0q-33 4 -47 37q-6 14 -4 30z" />
<glyph unicode="&#x3c;" d="M0 0v25l543 -2l-142 165l-135 164l-260 2v8l254 -2l-24 33q-35 47 -56 78q-10 18 -16 31q-12 25 -10 45q4 41 43 76q8 6 14 11t8 6t4 5q37 43 58 70l-279 2v8l285 -2l37 49q123 164 208 297l-528 2v8l535 -2q94 143 161 275q12 23 36 30t45.5 -4.5t28.5 -35t-3 -44.5 q-57 -109 -127 -221h242v-8h-248q-98 -156 -240 -346l490 -4v-8l-496 4l-10 -13q-68 -92 -105 -135q-10 -12 -32 -30l2 -2q16 -27 47 -70l84 -105l508 -2v-8l-502 2l72 -86l210 -246h224v-24h-201l47 -47q16 -16 18.5 -41t-15 -42.5t-42 -19.5t-43.5 17q-29 27 -125 135z M0 1432v8h924v-8h-924z" />
<glyph unicode="=" d="M0 0v25l926 -5v-24zM0 1432v8h924v-8h-924zM2 717v8l922 -6v-8zM4 1071v8l918 -2v-8zM6 354v8l416 -2q137 55 260 78q25 6 45.5 -8t24.5 -37q4 -18 -2 -35h172v-8h-177q-14 -23 -38 -26q-82 -16 -171.5 -48t-148.5 -59t-164 -78q-23 -10 -46 -2t-33.5 29.5t-2 45.5 t28.5 34q152 74 231 106zM95 804.5q-5 24.5 8 45t38 24.5q393 82 633 89q25 0 43.5 -16.5t18.5 -41t-16.5 -43t-41.5 -18.5q-229 -6 -612 -84q-25 -6 -45.5 7t-25.5 37.5z" />
<glyph unicode="&#x3e;" d="M0 0v25l301 -2q117 240 166 329l-461 2v8l465 -2q43 80 84 146q2 4 10 14l21 27q12 16 20 24l23 31q-18 23 -51 60l-48 51l-528 4v8l520 -4l-114 123l-224 227h-180v8h172q-51 51 -65 68q-16 18 -14.5 42.5t20 41t43 14.5t41.5 -20q18 -20 141 -146l580 -2v-8l-572 2 l142 -145q127 -131 174 -185l18 -20l240 -2v-8l-234 2q23 -25 35 -41l18 -29q14 -25 13 -47q0 -16 -13 -35q-4 -8 -12 -18q-10 -18 -31 -43l-16 -21l-12 -14q-4 -6 -7 -11t-6 -8l-2 -2l-51 -84l316 -2v-8l-320 2q-61 -111 -170 -329l494 -3v-24l-504 2l-55 -111 q-10 -23 -34 -30t-46.5 3.5t-29.5 34t3 46.5l29 57zM0 1432v8h924v-8h-924z" />
<glyph unicode="?" d="M0 0v25l301 -2q14 37 29 63q12 23 35.5 30t44.5 -3q30 -17 32 -50q18 -16 19 -40l465 -3v-24l-469 2l-4 -8q-43 -70 -64 -88q-10 -12 -24 -17q-16 -8 -35 -4q-25 4 -39 27q-12 16 -12 39q2 8 4 18q2 14 10 33zM0 1432v8h250q63 57 129 98q113 68 203 64q123 -4 168 -132 q6 -16 10 -30h164v-8h-162q41 -156 -39 -355h199v-8h-203q-33 -78 -105 -203l-84 -145l394 -2v-8l-398 2q-133 -227 -155 -353l551 -2v-8l-553 2q-2 -10 -2 -20q-4 -25 -22.5 -40.5t-43.5 -12t-40 21.5t-13 43q0 4 2 8l-244 2v8l244 -2q20 141 139 355l-387 2v8l391 -2 l119 201q47 84 76 145l-584 2v8l588 -2q96 211 47 353l-2 2h-203q-78 -49 -142.5 -118t-80.5 -112v-10q2 -4 2 -8v-4v-6q2 -14 2 -25q0 -25 -17.5 -42t-42 -17t-42 17t-17.5 42v12l-2 21q-4 35 6 61q29 84 142 189h-242zM446 1440h189q-18 43 -60 45q-51 0 -129 -45z" />
<glyph unicode="@" horiz-adv-x="1312" d="M0 0v25h383q-166 59 -248 241q-18 43 -31 88h-98v8h96q-43 164 -12 355h-88v8h90q12 76 37 145q33 102 88 201h-213v8h217q111 195 287 353h-508v8h518l33 26q145 123 262 148q231 53 348 -125q16 -23 29 -49h133v-8h-129q57 -129 53 -322v-31h80v-8h-80 q-12 -184 -71 -346h151v-8h-153l-3 -6q-84 -209 -202 -238q-131 -31 -187 47q-37 53 -26 160q2 16 6 37h-6l-64 -70q-63 -63 -112 -86q-39 -18 -74 -14q-45 6 -74 45q-25 37 -12 88q4 16 12 37h-221q-35 -195 14 -355h1106v-8h-1104l17 -41q106 -242 399 -184 q23 6 44.5 13.5t51 19.5t53 20t45 -2t29.5 -33.5t-2 -45t-33 -29.5l-53 -23q-43 -16 -69 -24h630v-25h-790h-23h-526zM213 725h223q6 12 15 27q37 66 110 147q66 74 133 133q25 23 47 39h-385q-76 -117 -116 -237q-16 -53 -27 -109zM360 1079h392q31 23 53 31q29 10 67 8 l25 -2q8 -2 14 -2q39 0 54 -35h163v33q6 205 -65 311l-6 9h-359q-33 -23 -73 -56q-156 -131 -265 -297zM545 678q20 14 47 39h-25q-8 -12 -14 -25q-4 -6 -8 -14zM573 725h27l8 6l43 49q25 27 41 47l33 41l20 25l3 6q10 18 12 23q10 20 26 30q18 14 43 13q23 0 43 -19 q27 -25 29 -74q2 -27 -4 -67q-2 -16 -8 -43q-4 -31 -6 -37h166l12 29q55 145 65 317h-157q2 -8 2 -16q0 -25 -17.5 -42.5t-42.5 -17.5q-12 0 -28 2h-6q-4 0 -7.5 1t-7.5 1q-12 2 -16 0q-16 -6 -74 -57q-63 -55 -123 -123q-45 -51 -76 -94zM711 1440h340q-72 90 -213 59 q-57 -14 -127 -59zM874 668q-6 -61 7 -80l4 -2q2 -2 16 -3t39 5q51 12 104 129h-163q-4 -29 -7 -49z" />
<glyph unicode="A" horiz-adv-x="1312" d="M0 0v25h76q16 86 53 202q-8 6 -14 15q-14 23 -9 47t25 39l39 24v2h-164v8h166q23 63 33 103l78 252h-281v8h283l104 346h-385v8h387l19 64l69 205l29 84h-508v8h512l10 30q10 29 17 43q2 8 6 15l4 8q2 6 6 10q16 20 47 21q27 0 45 -19q6 -6 10 -14q4 -6 11 -16 q6 -14 14 -41l14 -37h627v-8h-625l23 -66l57 -184l33 -103h516v-8h-514q59 -180 129 -346h385v-8h-381l15 -37l14 4q25 6 47 -6t28.5 -37t-5 -46.5t-35.5 -29.5q47 -102 98 -203h223v-8h-219q82 -160 174 -307q8 -10 10 -22h43v-25h-45q-6 -25 -27.5 -38t-46 -7t-36.5 27 l-13 18h-974l-2 -12q-6 -28 -27 -42q-16 -11 -33 -10q-6 0 -12 1q-23 4 -37 22t-14 41h-72zM201 25h956q-96 160 -182 329h-549q-82 -39 -154 -84q-53 -158 -71 -245zM328 442q227 119 514 205l-29 70h-403zM412 725h397q-66 166 -125 346h-168zM442 362h529l-80 170 q-248 -74 -449 -170zM520 1079h162l-23 66l-55 182l-2 2l-6 -22q-51 -150 -68 -201z" />
<glyph unicode="B" horiz-adv-x="1312" d="M0 0v25h264q-2 2 -4 6q-6 25 5 47t36 31q268 86 510 245h-492l17 -180q2 -25 -14.5 -45t-41 -22.5t-45 14t-22.5 41.5q-8 90 -16 192h-191v8h189q-12 143 -25 355h-168v8h168l-18 283q-2 25 -5 63h-143v8h141q-10 129 -10 189q-14 -6 -22 -13q-20 -14 -46 -9t-40.5 25.5 t-9 46t25.5 40.5q33 23 98 45q2 10 2 20q2 4 2 9h-145v8h147q18 38 55 38q5 0 11 -1q35 -6 47 -37h19l14 2q180 39 356 41h16q182 0 293 -43h365v-8h-346q76 -35 110 -93q28 -46 28 -99q0 -26 -7 -54q-10 -47 -68 -107h287v-8h-295l-22 -22q-63 -57 -168 -129 q-92 -66 -287 -185l45 6q265 42 402 42q56 0 90 -7q78 -14 118 -51h117v-8h-108q10 -12 18 -27q14 -26 14 -54q0 -39 -26 -83q-37 -63 -156 -160l-37 -31h299v-8h-311q-272 -211 -586 -329h905v-25h-972l-29 -10q-10 -2 -18 -2q-20 0 -37 12h-283zM258 1309v-17 q0 -65 12 -213h584l72 60q57 53 63 75q8 37 -6 62q-16 25 -57 43q-88 41 -261 41h-16q-162 -2 -332 -37q-30 -8 -59 -14zM270 1071q2 -31 4 -55l19 -291h4q2 0 2 2l145 86q18 12 27 16q2 0 4 2q4 3 8 3q205 127 289 186l72 51h-574zM303 569q8 -113 14 -207h506 q84 57 168 125q102 84 127 127q8 13 8 21q-14 12 -59 22q-24 5 -64 5q-120 0 -382 -41l-146 -23l-90 -16q-53 -10 -78 -13h-4z" />
<glyph unicode="C" horiz-adv-x="1312" d="M0 0v25h115q-56 83 -56 210q0 55 11 119h-64v8h66q18 109 67 238q23 55 54 117h-191v8h195q94 178 241 346h-434v8h442q49 55 101 105q176 166 354 248h-901v8h920q139 59 268 59q25 0 43 -17.5t18 -41.5h74v-8h-74q-2 -23 -19 -39.5t-42 -16.5q-131 0 -274.5 -75.5 t-280.5 -204.5l-17 -17h711v-8h-719q-160 -160 -270 -346h989v-8h-995q-49 -84 -78 -162q-41 -104 -57 -193h929l11 7q16 9 31 9q20 0 38 -16h125v-8h-117q4 -4 7 -8q12 -23 5 -47.5t-28 -36.5q-43 -23 -133 -76l-164 -92l-135 -69h573v-25h-624q-209 -95 -355 -95 q-144 0 -227 93v2h-133zM195 354q-14 -69 -14 -124q0 -99 46 -150q29 -33 80 -45q20 -5 48 -5q42 0 100 11q94 18 219 76q55 27 114 57l105 55l113 66l104 59h-915z" />
<glyph unicode="D" horiz-adv-x="1312" d="M0 0v25h305l64 59q-25 -2 -43.5 14.5t-22.5 40.5q-10 94 -18 215h-279v8h279l-11 189q-8 123 -10 166h-262v8h262q-4 80 -10 145q-6 84 -25 201h-225v8h223q-2 18 -16 98t-21 126q-4 33 23 55q-53 -4 -109 -15q-27 -4 -47 11.5t-24 40.5q-2 20 6 37h-39v8h43q16 22 41 26 q153 22 284 22q75 0 142 -7q104 -12 201 -41h612v-8h-586q82 -27 156 -64q207 -104 240 -289h194v-8h-192q4 -35 4 -74q-4 -123 -80 -272h268v-8h-272q-37 -76 -94 -156q-63 -94 -152 -199h522v-8h-530q-129 -152 -318 -329h856v-25h-880l-131 -121q-18 -16 -43 -16 t-42.5 19.5t-17.5 44t21 42.5l33 31h-279zM283 1364q27 -16 30 -45q6 -43 19.5 -126t19.5 -114h656q-31 109 -168 178q-158 80 -342 101q-67 8 -140 8q-37 0 -75 -2zM352 1071q18 -111 25 -192q6 -68 10 -154h533q92 160 96 276q0 37 -6 70h-658zM387 717q2 -33 10 -160 l11 -195h237q129 143 215 267q30 45 55 88h-528zM408 354q8 -111 18 -202v-13q119 115 211 215h-229z" />
<glyph unicode="E" horiz-adv-x="1312" d="M0 0v25h147q6 8 15 12q-12 145 -15 317h-141v8h141q-1 39 -1 81t1 87q-23 10 -30.5 33t1.5 45.5t29 32.5q2 35 3 74v2h-148v8h148q0 16 3 147.5t3 198.5h-152v8h154v203q-12 12 -17 31q-8 31 15 55v33q0 16 6 31h-162v8h168q18 25 47 24q33 0 51 -24h125l189 59 q252 74 421 74q25 0 43.5 -18.5t18.5 -43t-18.5 -43t-43.5 -18.5q-63 0 -135 -10h457v-8h-504q-86 -16 -205 -52l-102 -32l-127 -37q-55 -18 -104 -31q0 -90 -2 -201h1048v-8h-1048q0 -51 -1.5 -109.5t-3.5 -128t-2 -108.5h82l232 94q82 33 216 70t247 47q25 2 44 -14.5 t21 -42t-14.5 -45t-42.5 -21.5q-162 -14 -371 -88h641v-8h-663q-78 -29 -222 -88l-172 -72q-1 -53 -1 -102t1 -93h1061v-8h-1061q2 -139 11 -260q340 152 725 215q25 4 46 -11t25 -40t-11 -46.5t-40 -25.5q-315 -53 -594 -161h907v-25h-966q-78 -33 -152 -70q-14 -6 -27 -6 l-19 3q-23 7 -36 32q-10 18 -4 41h-135zM272 690l62 27h-62v-4v-23zM272 1432q7 -13 7 -25q39 10 86 25h-93z" />
<glyph unicode="F" horiz-adv-x="1312" d="M0 0v25h43q-12 150 -12 329h-25v8h25q-1 24 -1 50.5t1 54.5q-14 12 -21 29q-3 10 -3 20q0 26 24 45q0 53 2 117v39h-31v8h31q6 287 8 346h-37v8h37v164q-6 10 -8 21q-2 20 8 39q-2 33 -2 61q0 27 17.5 45t43 18t44 -17t18.5 -42v-20q74 14 377 84h-539v8h575 q362 82 586 82q25 0 43.5 -18.5t18.5 -43.5q0 -10 -4 -20h104v-8h-106q-18 -33 -56 -33q-150 0 -312.5 -29t-365 -78t-319.5 -69v-144h1163v-8h-1163q-2 -66 -8 -346h331q352 119 600 139q25 2 44.5 -14t21.5 -42t-14.5 -45.5t-42.5 -21.5q-68 -4 -138 -16h369v-8h-416 q-115 -23 -231.5 -58.5t-293.5 -99t-232 -82.5q-2 -8 -1 -57t1 -58h1177v-8h-1177q0 -180 12 -329h1173v-25h-1171v-6q2 -25 -14 -44q-16 -20 -42 -22h-6q-22 0 -40 14q-20 16 -21 44v14h-45zM154 606l309 111h-307v-41q0 -37 -2 -70z" />
<glyph unicode="G" horiz-adv-x="1312" d="M0 0v25h190q-143 111 -145 329h-39v8h39q0 68 16 142q20 102 70 213h-129v8h133q84 184 227 346h-358v8h367q47 53 98 101q215 197 444 252h-913v8h950q62 12 122 12t118 -12h129v-8h-98q18 -10 28.5 -29t3.5 -41q-6 -25 -27.5 -38t-45.5 -7q-55 13 -111 13 q-100 0 -204 -40q-163 -63 -312 -200l-12 -11h786v-8h-795q-160 -154 -260 -346h1055v-8h-1061q-63 -125 -86 -238q-12 -61 -12 -117h870q14 14 35 17v16q0 18 6 47q4 25 4 27l-116 -29q-193 -47 -258 -51q-27 -2 -45.5 15.5t-20.5 43t15 44t42 20.5q57 4 238 47l121 31 q27 6 39 8q10 2 16 3t10 1q20 2 41 -14q42 -34 42 -99q0 -10 -1 -22q-2 -12 -6 -45q-4 -20 -4 -31v-29h135v-8h-135q-1 -36 -1 -69q0 -165 17 -260h127v-25h-122q10 -57 30 -117q6 -25 -5 -47t-36 -30q-9 -2 -19 -2q-14 0 -27 6q-23 12 -32 36q-25 78 -36 154h-357 q-127 -53 -250 -58h-24q-109 0 -201 40q-18 8 -35 18h-225zM168 354q0 -195 145 -262q59 -30 141 -30q31 0 64 4q125 16 252 88q121 67 258 200h-860zM788 25h299q-14 89 -16 200q-123 -113 -240 -178q-20 -12 -43 -22z" />
<glyph unicode="H" horiz-adv-x="1312" d="M0 0v25h94q-1 40 -1 87q0 96 5 224v18h-92v8h92q10 205 11 291q0 31 -3 64h-104v8h104q-2 47 -6 123q-12 158 -14 201v22h-82v8h80v76q0 55 -2 90t-8 70q-4 27 11 47t41 24.5t46.5 -11t24.5 -40.5q6 -41 8 -81t2 -102t2 -73h809q-12 199 -12 334q0 10 2 19h-1008v8h1012 q16 35 55 35t55 -35h201v-8h-197q2 -8 2 -19q0 -135 13 -334h186v-8h-186q2 -35 7 -116t9 -124q20 -14 27 -38q2 -8 2 -15q0 -29 -25 -49l2 -4h164v-8h-164q12 -242 21 -355h147v-8h-147q14 -176 39 -321v-8h116v-25h-120q-12 -33 -48 -39q-23 -2 -41 8.5t-26 30.5h-889 q-4 -20 -20.5 -33.5t-36.5 -13.5q-23 0 -40.5 13.5t-21.5 33.5h-96zM209 1053q2 -39 14 -197q4 -76 6 -131h283q92 18 267 49t255 47q-2 45 -8 129t-8 121h-809v-18zM217 25h881q-23 149 -37 329h-840v-22q-5 -129 -5 -222q0 -47 1 -85zM221 362h840q-9 113 -21 336 q-80 -16 -256 -46.5t-303 -58.5t-243 -67q-4 -2 -9 -2q-2 -45 -8 -162zM229 717q2 -33 2 -64q109 35 242 64h-244z" />
<glyph unicode="I" d="M0 0v25l369 -2q-4 53 -4 124q0 89 6 205l-365 2v8l365 -2q4 115 6 162q1 38 1 86t-1 107l-375 2v8l375 -2q-2 129 -2 141q-1 40 -1 77q0 73 3 130h-373v8h373q4 72 10 138q4 25 23.5 40t45 12t41 -22.5t13.5 -46.5q-8 -57 -10 -123h422v-8h-422q-3 -56 -3 -128 q0 -36 1 -75q0 -8 2 -145l424 -2v-8l-424 2q1 -60 1 -108.5t-1 -86.5q-2 -55 -6 -158l428 -2v-8l-428 2q-7 -119 -7 -206q0 -73 5 -123l434 -3v-24l-432 2q2 -18 6 -37q2 -25 -12 -45t-40 -24q-5 -1 -10 0q-20 0 -36 12q-20 14 -24.5 40.5t-6.5 53.5zM0 1432v8h418 q-8 4 -17 12q-18 18 -18 43t18.5 43t43 18t43 -18t18.5 -43t-19 -43q-8 -8 -16 -12h453v-8h-924z" />
<glyph unicode="J" horiz-adv-x="1312" d="M0 0v25h397q-109 41 -184.5 124.5t-97.5 204.5h-109v8h107q-4 23 -7 44q-2 27 14.5 46t42 21t45 -14.5t21.5 -40.5q2 -29 9 -56h684q57 139 67 355h-987v8h987q2 33 2 66q0 123 -12 280h-975v8h975q-6 70 -18.5 188.5t-14.5 135.5q-2 14 4 29h-950v8h954q16 27 47 30h8 q33 0 52 -30h262v-8h-258l4 -17q0 -8 13.5 -135t19.5 -201h225v-8h-225q12 -158 12 -280q0 -35 -2 -66h215v-8h-215q-8 -207 -59 -355h278v-8h-282q-37 -102 -95 -178q-82 -104 -204 -151h589v-25h-682q-42 -7 -84 -7l-84 7h-489zM240 354q27 -92 102.5 -154.5t166.5 -79.5 q32 -7 64 -7q60 0 123 22q97 33 160 115q35 45 62 104h-678z" />
<glyph unicode="K" horiz-adv-x="1312" d="M0 0v25h190q-14 116 -14 286v43h-170v8h170v46q-23 8 -33 31.5t-2 45.5q14 41 37 84q-8 23 0 43v58v47h-176v8h176q-4 203 -8 346h-166v8h166q-4 190 -10 353h-160v8h160l-2 65q0 25 16 44.5t42 19.5t45.5 -16.5t19.5 -43.5l2 -69h768l61 59q18 16 44 16.5t44 -18.5 q23 -25 14 -57h109v-8h-111q-4 -12 -14 -23l-350 -330h479v-8h-487l-115 -106l-127 -113q-94 -82 -141 -127h870v-8h-878q-78 -76 -123 -144q82 -94 239 -211h766v-8h-753l77 -55q231 -156 447 -256q12 -6 22 -18h215v-25h-204q4 -20 -5 -39q-10 -23 -34 -31q-10 -4 -20 -4 q-13 0 -27 6q-61 29 -136 68h-604q-14 -35 -49 -39q-6 -1 -11 -1q-38 0 -54 40h-195zM283 1432q6 -162 10 -353h375l374 353h-759zM293 1071q4 -142 6 -332q49 55 111 111l131 117q72 59 102 88l16 16h-366zM299 354v-43q0 -168 14 -280v-6h555q-141 80 -282 174 q-123 81 -209 155h-78zM299 362h68q-37 31 -68 60v-60z" />
<glyph unicode="L" horiz-adv-x="1312" d="M0 0v25h176q-14 20 -22 49q-14 49 -17 127q-1 24 -1 55.5t1 69.5q0 8 2 28h-133v8h133v44q-2 47 -7 151.5t-9 159.5h-121v8h121q-6 162 -6 286v60h-113v8h113q4 176 24 318q4 20 21 35h-162v8h172q15 8 33 8h8q10 -2 20 -8h1090v-8h-1079q25 -23 20 -56 q-20 -131 -24 -297h1087v-8h-1087v-59q0 -123 6 -287h1081v-8h-1081q4 -51 9 -153.5t7 -153.5v-48h754l162 64q25 8 47 -2t32 -33q6 -14 5 -29h69v-8h-71q-8 -31 -37 -43l-494 -194q-154 -57 -258 -92h868v-25h-948q-35 -10 -59 -16q-40 -8 -67 -8q-11 0 -19 1q-27 4 -47 23 h-199zM258 205q4 -61 12 -94l6 -13q12 2 27 6q39 8 100 27q106 35 283 102l309 121h-733l-2 -32q-2 -72 -2 -117z" />
<glyph unicode="M" horiz-adv-x="1312" d="M0 0v25h102q-20 112 -20 283v46h-76v8h76q0 37 2 80q0 45 10 275h-92v8h94q4 131 4 203.5t-6 142.5h-90v8h90q-4 57 -12 121q-4 31 -8 88q-2 33 -2 53v23l4 16q2 12 10 21q18 25 49 24q25 0 45 -18q8 -6 17 -16q10 -12 22 -37q18 -31 51 -105l82 -170h461l145 232 q45 74 68 121h-1026v8h1028l4 10q2 2 2 5t1 12.5t3 23.5q14 76 78 86q6 1 11 1q37 0 57 -36q6 -12 10 -31q2 -20 2 -55v-16h127v-8h-127q-2 -49 -8 -119q-2 -29 -25 -234h164v-8h-164q-2 -12 -2 -20q-16 -190 -20 -326h186v-8h-186v-30q0 -178 22 -325h168v-8h-168 q27 -162 82 -309q4 -10 4 -20h90v-25h-94q-10 -25 -35 -35q-25 -8 -47 2t-33 33h-897l5 -12q6 -25 -6 -46q-14 -22 -38 -29q-9 -3 -17 -3q-15 0 -29 8q-22 12 -29 37q-6 20 -10 45h-109zM205 354v-32q0 -188 22 -297h895q-57 158 -82 329h-835zM205 362h833q-20 143 -20 311 v44h-244q-41 -102 -65 -131q-38 -47 -88 -47q-21 0 -43 8q-49 16 -103 78q-31 37 -67 92h-191q-10 -236 -10 -279q-2 -39 -2 -76zM219 725h182q-43 70 -96 174l-86 172q4 -68 4 -141q0 -72 -4 -205zM356 1071l58 -117q80 -154 137 -229h94l23 55l34 86q18 47 29 70 q33 61 76 135h-451zM559 717l10 -12q27 -33 45 -41q8 10 27 53h-82zM778 725h240q4 139 20 338q0 4 2 8h-88q-68 -104 -110 -192q-10 -18 -27 -58l-33 -86zM956 1079h84q2 14 8.5 69.5t8.5 90.5z" />
<glyph unicode="N" horiz-adv-x="1312" d="M0 0v25h84q-10 12 -14 30q-20 137 -25 299h-39v8h39v41q0 129 10 314h-53v8h53l11 162q2 33 5 95t5 89h-72v8h72q12 215 39 353h-115v8h117q6 27 30 39q10 18 31 24q10 4 20 4q14 0 26 -6q22 -10 30 -33l10 -28h834v12q4 25 24 39q17 12 37 12h6q23 -4 38.5 -22.5 t13.5 -40.5h106v-8h-109q-31 -242 -43 -353h156v-8h-156q-23 -193 -34 -346h190v-8h-190q-16 -190 -17 -355h211v-8h-211v-41q0 -153 13 -288h206v-25h-204v-2q2 -25 -13.5 -44.5t-39.5 -21.5h-6q-20 0 -38 14q-20 16 -22 40l-2 14h-1014zM164 354q4 -150 24 -282 q4 -27 -14 -47h825q-10 4 -20 10q-162 129 -305 319h-510zM164 362h504q-116 156 -222 355h-272q-10 -186 -10 -314v-41zM174 725h268q-82 156 -161 346h-86q-2 -27 -5.5 -91.5t-5.5 -100.5zM195 1079h81l-67 172q-8 -72 -14 -172zM268 1432q72 -197 138 -353h647 q12 115 43 353h-828zM410 1071q82 -190 168 -346h440q10 156 33 346h-641zM582 717q113 -203 237 -355h182q1 165 15 355h-434zM825 354q87 -104 179 -184q-3 70 -3 146v38h-176z" />
<glyph unicode="O" horiz-adv-x="1312" d="M0 0v25h211q-92 70 -137 215q-16 53 -23 114h-45v8h43q-6 54 -6 113q0 114 23 242h-64v8h64q33 180 102 346h-164v8h166q72 168 162 277q14 18 38.5 20t45.5 -14l73 53l21 17h-510v8h522q190 135 324 151q22 3 42 3q80 0 144 -44q57 -39 98 -110h193v-8h-188 q16 -31 30 -70q47 -129 58 -283h104v-8h-102l2 -58q0 -111 -19 -218q-6 -35 -16 -70h135v-8h-137q-49 -193 -164 -355h305v-8h-311q-14 -20 -31 -41q-66 -82 -164 -160.5t-202 -127.5h716v-25h-776l-24 -8q-76 -25 -144 -25q-70 0 -129 27q-8 2 -14 6h-252zM168 362h706 l21 25q119 148 172 330h-881q-25 -131 -25 -241q0 -60 7 -114zM170 354q6 -43 18 -82q41 -133 125 -170q37 -17 83 -17q48 0 106 19q96 31 194 100.5t172 149.5h-698zM186 725h883q14 45 21 90q17 91 17 184q0 36 -3 72h-807q-74 -162 -111 -346zM303 1079h801 q-8 131 -49 242q-27 72 -66 111h-254q-76 -37 -176 -111l-72 -53q-23 -18 -49 -43t-33.5 -32t-44.5 -50zM752 1440h229l-16 12q-36 24 -84 24q-10 0 -21 -1q-49 -6 -108 -35z" />
<glyph unicode="P" horiz-adv-x="1312" d="M0 0v25h86v6q-2 133 -4 323h-76v8h76q0 37 -1 162t-1 193h-78v8h78q-2 199 -6 346h-70v8h70q-4 174 -11 326q0 14 7 27h-70v8h74q16 25 47 26q33 2 51 -26h8q225 86 461 98q32 2 63 2q245 0 394 -100h225v-8h-213q18 -14 35 -31q68 -59 82 -153q4 -26 4 -51 q0 -64 -27 -118h123v-8h-125l-4 -6q-74 -156 -313 -340h442v-8h-453l-90 -66l-260 -176q-113 -76 -162 -113h969v-8h-981l-43 -32q-18 -16 -42.5 -14.5t-39.5 22.5q-10 10 -12 24h-12q2 -188 4 -323v-6h1134v-25h-1142q-16 -29 -52 -29q-33 0 -51 29h-94zM186 1315 q4 -111 7 -236h878q12 18 21 35q20 44 20 88q0 10 -2 22q-6 56 -43 91q-118 106 -358 106q-30 0 -62 -2q-244 -12 -461 -104zM193 1071q4 -147 6 -346h483l35 23q264 186 350 323h-874zM199 717q0 -68 1 -192t1 -163h10q-2 31 22 50q57 49 226 161l211 144h-471z" />
<glyph unicode="Q" horiz-adv-x="1312" d="M0 0v25h197q-94 70 -140 215q-14 51 -22 114h-29v8h29q-6 56 -6 118q0 110 20 237h-47v8h49q31 188 92 346h-139v8h141q14 35 29 64q35 74 150 213q14 18 38.5 20t45.5 -14l4 -4q47 41 90 74h-502v8h514l25 18q202 140 358 140q60 0 113 -21q88 -35 143 -137h170v-8h-166 q47 -90 68 -224q8 -61 12 -129h90v-8h-90q2 -45 2 -87q0 -105 -14 -189q-6 -35 -17 -70h119v-8h-121q-51 -190 -172 -355h297v-8h-301l-35 -43q-70 -84 -174 -164l60 -122h458v-25h-448q35 -74 61 -121q10 -23 3 -46t-29 -35q-13 -7 -27 -7q-9 0 -17 3q-24 7 -36 28 q-37 70 -86 178h-201q-14 -4 -27 -8q-80 -26 -149.5 -26t-128.5 26l-16 8h-238zM154 354q6 -45 18 -82q41 -133 129 -172q37 -16 83 -16q51 0 114 20q82 27 174 84q-49 94 -97 166h-421zM154 362h415l-4 5q-14 20 -9 44.5t24.5 39t44 9.5t39.5 -24l47 -74h172q12 12 22 27 q123 148 178 328h-913q-23 -133 -23 -243q0 -59 7 -112zM172 725h913q14 45 21 90q14 78 14 175q0 39 -2 81h-833l-6 -6q-7 -6 -15 -12q-61 -143 -92 -328zM293 1079h825q-4 53 -12 111q-25 170 -92 242h-289q-55 -29 -119 -72q-147 -102 -313 -281zM618 25h130l-25 55 q-53 -33 -105 -55zM715 354q26 -45 53 -96q59 47 106 96h-159zM743 1440h263q-18 18 -41 26q-32 13 -71 13q-66 0 -151 -39z" />
<glyph unicode="R" horiz-adv-x="1312" d="M-58 1348q-4 10 -3 20q-1 12 5 24q10 22 33 31l23 9v8h20q147 52 299 78q132 23 275 22h43q166 -4 305 -45q68 -20 125 -55h256v-8h-244q55 -37 90 -86q51 -70 51 -146q0 -59 -30 -121h137v-8h-141l-6 -10q-82 -150 -361 -336h508v-8h-520l-107 -68l-51 -31 q82 -76 209 -256h473v-8h-467q49 -72 80 -108q61 -78 193 -221h202v-25h-180l17 -18q18 -18 16 -43t-20 -43q-16 -16 -37 -15h-5q-24 2 -40 19l-93 100h-833q-4 -18 -20.5 -31.5t-37 -13.5t-37 12.5t-20.5 32.5h-49v25h47q-2 135 -4 329h-37v8h37q0 12 -1 148.5t-1 206.5 h-39v8h39q-2 197 -6 346h-31v8h31q-2 125 -6 236l-11 -2q-23 -8 -45.5 2.5t-30.5 32.5zM145 1354q4 -129 9 -275h897l26 39q23 42 23 80q0 42 -27 79q-51 71 -164 103q-157 41 -318 41q-29 0 -59 -1q-192 -9 -387 -66zM154 1071q4 -150 6 -346h436l41 25q307 188 407 321 h-890zM160 717q0 -74 2 -252q45 29 178 108l242 144h-422zM162 324q2 -174 4 -299h811q-76 84 -127 147l-133 182h-508zM221 362h490q-84 117 -158 183l-10 10l-144 -84q-119 -70 -178 -109z" />
<glyph unicode="S" horiz-adv-x="1312" d="M0 0v25h348q-166 82 -221 213q-8 23 1 45t31.5 31.5t45.5 0.5t33 -32q39 -94 173 -157t300 -71q23 -1 45 -1q129 0 209 40q69 32 69 85q0 9 -2 18q-14 92 -129 157h-897v8h883q-72 37 -275 101q-225 70 -319 121q-106 57 -164 133h-129v8h123q-33 45 -49 96q-9 28 -9 57 q0 89 80 193h-143v8h150q12 16 26 33q125 139 322 238q109 53 217 82h-719v8h754q81 18 153 17.5t135 -17.5h281v-8h-254q115 -39 186 -138q14 -18 11.5 -42.5t-22 -39t-44 -11.5t-39.5 24q-57 77 -155 101q-51 13 -108 12q-52 0 -106 -10q-114 -22 -237 -85 q-137 -70 -240 -164h1012v-8h-1020q-20 -18 -39 -39q-81 -92 -82 -151q0 -12 4 -23q23 -76 101 -133h1036v-8h-1024l47 -29q84 -45 299 -110q221 -68 312 -119q76 -43 120 -97h250v-8h-244q49 -61 64 -137q3 -19 3 -37q0 -92 -77 -155h262v-25h-297q-12 -8 -26 -14 q-105 -50 -258 -50q-26 0 -53 1q-160 8 -302 63h-403z" />
<glyph unicode="T" horiz-adv-x="1312" d="M0 0v25h498q-2 8 -2 16q4 162 12 313h-502v8h504q10 184 25 355h-533v8h533q16 178 38 346h-569v8h569q16 125 37 246q-365 -33 -538 -39q-25 0 -43.5 16.5t-18.5 41t16.5 43t41.5 18.5q160 4 401 27h-469v8h559l80 8q20 27 55 20q16 -4 29 -14q301 27 498 27 q43 0 57 -41h45v-8h-43v-11q0 -25 -17.5 -42t-41.5 -17q-195 0 -490 -27q-20 -125 -37 -256h633v-8h-635q-23 -168 -39 -346h674v-8h-674q-14 -170 -24 -355h702v-8h-704q-8 -154 -13 -317q0 -6 -2 -12h727v-25h-739q-18 -20 -47 -20q-27 0 -43 20h-510z" />
<glyph unicode="U" horiz-adv-x="1312" d="M0 0v25h367q-176 78 -254 288q-8 20 -15 41h-92v8h90q-39 134 -39 320v35h-55v8h55q4 164 37 346h-90v8h90q33 176 82 330q4 12 14 23h-190v8h201q23 16 51 8q8 -4 14 -8h850v4q4 25 22 40q16 13 38 13h6q23 -2 38 -18.5t15 -38.5h88v-8h-88q-8 -76 -23 -302l-4 -51h119 v-8h-119q-12 -160 -26 -268q-6 -41 -13 -78h158v-8h-158q-37 -209 -108 -355h270v-8h-274q-43 -86 -101 -155q-100 -121 -233 -174h616v-25h-692q-55 -12 -109 -12q-20 0 -40 2q-31 4 -60 10h-438zM176 717q-1 -23 0 -44q0 -185 45 -311h705q82 138 123 355h-873zM176 725 h873l16 94q12 104 25 252h-875q-35 -184 -39 -346zM215 1079h875l4 60q16 238 22 293h-840q18 -19 18 -42q0 -9 -3 -18q-45 -137 -76 -293zM223 354q43 -115 119 -176q76 -60 167 -70q16 -2 33 -2q76 0 154 35q96 43 170 135q29 35 56 78h-699z" />
<glyph unicode="V" horiz-adv-x="1312" d="M0 0v25h612q-10 12 -22 32q-20 33 -51 90q-41 84 -74 162l-19 45h-440v8h436l-143 355h-297v8h295q-84 207 -147 346h-146v8h141l-108 232q-10 23 -3 46t29.5 33.5t46 3t33.5 -29.5l133 -285h682l117 353h-1075v8h1077l13 37q8 23 30 34q13 7 26 7q8 0 18 -4 q24 -8 35 -29t5 -45h119v-8h-123l-117 -353h244v-8h-246l-116 -346h362v-8h-364l-119 -355h487v-8h-489l-4 -8q-2 -8 -9.5 -32.5t-17.5 -63.5t-20 -70q-20 -63 -35 -102q-10 -27 -19 -41l-8 -12h610v-25h-639q-8 -4 -18 -6h-7q-15 0 -30 6h-645zM279 1071l145 -346h416 l114 346h-675zM428 717l143 -355h148q6 16 8 21l111 334h-410zM575 354q31 -74 70 -153l17 -33l16 47l39 139h-142z" />
<glyph unicode="W" horiz-adv-x="1312" d="M0 0v25h350q-4 10 -8 24q-12 39 -31 105q-29 117 -39 168l-8 32h-258v8h258l-74 355h-188v8h186q-41 190 -82 346h-102v8h100q-35 131 -71 254q-6 23 5 44.5t34.5 28.5t45 -4t29.5 -36q41 -135 80 -287h365q8 31 24 58q8 12 17 20q18 16 41 19q33 2 53 -25q8 -10 14 -25 q6 -16 7 -47h352l88 353h-1188v8h1188l4 12q4 23 26 36q15 9 31 9q8 0 15 -2q18 -4 31.5 -19.5t13.5 -35.5h14v-8h-14q0 -4 -2 -9l-84 -344h104v-8h-106q-53 -213 -82 -346h188v-8h-188q-39 -195 -54 -355h246v-8h-246q-2 -10 -2 -18q-4 -57 -18 -172q-10 -74 -18 -119 l-5 -20h297v-25h-303q-4 -12 -8 -20q-12 -25 -33 -35q-12 -5 -24 -5q-17 0 -33 11q-6 4 -12 10q-2 2 -4 6l-4 4q0 2 -3 6l-4 11l-6 12h-424l-4 -4q-20 -27 -49 -33q-27 -4 -49 14q-8 6 -14 15l-5 8h-360zM229 1071q39 -156 80 -346h242q12 66 14 86q4 20 5 44t1 55.5t2 52.5 q2 63 15 108h-359zM311 717l74 -355h90l8 44q35 147 66 311h-238zM387 346q10 -49 41 -162q25 80 45 170h-86v-8zM496 25h399l-51 116q-47 115 -82 213h-168q-33 -145 -62 -231q-18 -59 -34 -92zM596 362h164q-57 171 -92 347q-29 -154 -68 -328zM750 1057q0 -4 2 -76 q0 -41 2 -55q14 -109 32 -201h232q29 139 80 346h-348v-14zM786 717q37 -178 99 -355h82q12 162 49 355h-230zM889 354q26 -73 59 -155q14 102 17 145v10h-76z" />
<glyph unicode="X" horiz-adv-x="1312" d="M0 0v25h147q2 8 7 16q61 133 176 313h-324v8h330l145 222l84 133h-563v8h569l19 29q-121 182 -219 317h-367v8h361q-96 133 -191 244q-16 20 -14 44t21.5 40t43 14t39.5 -20q121 -143 248 -322h285l225 353h-1022v8h1028l2 4q14 23 38 28q7 1 13 1q17 0 31 -9 q14 -10 23 -24h188v-8h-184q8 -27 -6 -50l-195 -303h389v-8h-393l-203 -315l2 -4l19 -27h575v-8h-571l229 -355h346v-8h-340l180 -264q12 -18 12 -35q0 -15 -9 -30h165v-25h-194q-23 -8 -45 0h-836l-4 -8q-10 -23 -32 -31q-10 -4 -21 -4q-13 0 -25 6q-25 10 -32 37h-150z M276 25h795l-221 329h-379q-131 -201 -195 -329zM477 362h367l-182 283l-82 -127zM518 1071l141 -207l134 207h-275z" />
<glyph unicode="Y" horiz-adv-x="1312" d="M0 0v25h223l201 329h-418v8h422l102 170q-51 74 -106 185h-422v8h418q-41 80 -86 178l-70 168h-260v8h256q-63 160 -110 299q-10 29 8 54h-158v8h164q10 8 22 12q11 4 21 4q21 0 39 -16h860l22 33q14 18 39 23q7 1 13 1q17 0 32 -10q23 -18 25 -47h86v-8h-86 q-2 -14 -10 -29l-219 -324h319v-8h-323l-218 -346h541v-8h-547l-106 -178q16 -18 14 -43t-20 -41q-23 -20 -54 -13l-47 -80h764v-8h-770l-199 -329h977v-25h-991l-61 -100q-14 -20 -38 -26q-8 -3 -15 -3q-16 0 -30 9q-20 14 -26 37.5t6 43.5l25 39h-209zM254 1432 q4 -6 6 -17q55 -160 129 -336h477l236 353h-848zM393 1071l49 -119q60 -131 111 -227h94l215 346h-469zM557 717q21 -39 41 -72l43 72h-84z" />
<glyph unicode="Z" horiz-adv-x="1312" d="M0 0v25h53q-3 11 -3 22q0 40 42 70q6 6 12.5 10t7.5 5t3 1t2 2q74 84 174 213l6 6h-291v8h297l266 355h-567v8h571l252 346h-821v8h827l62 82q10 14 53 64q47 55 70 82q20 27 35 47h-9q-66 0 -176 -2q-213 -8 -284 -13q-202 -13 -327 -13q-42 0 -75 1q-25 2 -42 19.5 t-15 42.5q2 27 20 43h-143v8h156q14 6 28 6q31 -2 71 -2q120 0 318 14q74 4 291 12q113 2 178 3h62q14 -2 22 -3q8 -2 15 -4q20 -4 33 -20q2 -4 4 -6h145v-8h-141q12 -25 8 -56q-4 -25 -19 -51q-20 -39 -63 -92q-27 -33 -74 -86q-39 -47 -47 -55l-8 -13h348v-8h-354 l-252 -346h606v-8h-612l-262 -355h878v-8h-885l-61 -80l-156 -190h9q55 6 131 18q31 4 179 29t207.5 33t172 18.5t205.5 10.5q25 0 42 -17.5t17 -42t-17.5 -42t-41.5 -17.5q-195 0 -498 -49h704v-25h-854l-96 -16q-82 -12 -141 -17q-44 -5 -76 -5q-11 0 -20 1q-29 2 -46 8 q-27 10 -40 29h-66z" />
<glyph unicode="[" d="M0 0v25h225q2 8 4 20q2 8 4.5 13t3.5 7.5t1 4.5v2q18 172 22 280l-254 2v8l254 -2q2 37 2 72v283l-260 2v8l260 -2q0 199 -4 348h-254v8h254l-4 170q0 6 -2 23.5t-5 47.5t-5 54q-2 33 -4 58h-238v8h238v16q-2 20 0 35q0 23 6 37q35 92 168 94q33 0 145 -16 q25 -4 39 -23.5t11 -44.5t-22 -39t-44 -12q-104 16 -129 16q-45 -2 -56 -14v-2v-27v-20h568v-8h-568q2 -20 4 -50q2 -23 5 -53l6 -51q2 -18 2 -25l4 -174l545 -2v-8l-545 2q4 -150 4 -348l543 -4v-8l-543 4v-283q0 -35 -2 -72l543 -2v-8l-543 2q-4 -115 -23 -293 q-2 -8 -4 -22q27 -2 70 2q55 4 139 18q45 6 66 -34l299 -3v-24l-295 2q0 -23 -14.5 -39t-34.5 -20q-88 -14 -152 -19q-55 -4 -94 0q-61 6 -90 39q-14 18 -19 41h-227z" />
<glyph unicode="\" d="M0 0v25l584 -2q-57 135 -113 329l-465 2v8l461 -2l-86 316l-10 39l-369 2v8l365 -2q-18 63 -59.5 183t-55.5 165h-248v8h246q-68 207 -88 353h-162v8h162l-2 6q-2 25 12 44t39 22.5t44 -11t24 -39.5q0 -12 2 -22h643v-8h-641q23 -141 92 -353l547 -2v-8l-545 2 q100 -301 115 -350l432 -2v-8l-430 2l2 -4q14 -49 45.5 -168t50.5 -181l330 -2v-8l-328 2q53 -180 111 -307q4 -12 4 -25h217v-24h-221q-10 -20 -31 -31q-23 -8 -46.5 0t-33.5 31v2z" />
<glyph unicode="]" d="M0 0v25l532 -2q0 35 -4 92q-12 219 -12 225v12l-510 2v8l510 -2q-2 160 -4 353l-510 4v8l510 -4v348l-508 2v8l508 -2v172l2 58q2 55 0 92v33h-514v8h512q-2 20 -4 35q0 2 -2 6l-2 -2q-18 0 -49 -9l-58 -16q-37 -8 -51 -12q-25 -4 -45 11t-24.5 39t11 44t38.5 25 q10 0 39 8q45 12 61 16q41 10 68 12q47 4 75 -10q41 -23 56 -90q4 -25 6 -57h293v-8h-291v-31q2 -37 0 -94l-2 -58v-172h291v-8h-291v-348l293 -2v-8l-293 2q2 -193 4 -353l287 -2v-8l-287 2v-12q0 -2 12 -219q4 -59 4 -98l275 -3v-24l-273 2v-6v-47v-17q-2 -6 -2 -12 q-4 -14 -14 -25q-12 -16 -33 -22q-8 -2 -18 -4q-16 -2 -41 -4q-41 -4 -107 -4q-109 -4 -172 -2q-25 0 -41 18t-16 43t18 41t43 16q57 -2 164 2q63 0 101 5v8v10z" />
<glyph unicode="^" d="M0 0v25l926 -5v-24zM0 1432v8h424l14 41l21 61q4 14 6 23q4 6 6 12q4 6 10 12q23 25 56 17q27 -6 47 -33q8 -10 16 -31q10 -27 27 -78l6 -24h291v-8h-289q16 -57 49 -197l41 -158h197v-8h-195q55 -215 92 -297q12 -27 0 -53h105v-8h-111q-8 -10 -22 -17q-43 -20 -72 19 l-717 4v8l711 -4v2q-45 96 -109 346l-244 2q-96 -156 -135 -256q-8 -23 -30.5 -33t-45 -2t-33 31t-1.5 45q35 92 106 215h-217v8h221l78 125q59 96 84 146q16 27 35 82h-422zM6 354v8l916 -4v-8zM365 1079l237 -2l-33 129q-29 121 -41 168q-18 -51 -34 -82 q-33 -59 -129 -213z" />
<glyph unicode="_" d="M0 0v25l926 -5v-24zM0 1432v8h924v-8h-924zM2 717v8l922 -6v-8zM4 1071v8l918 -2v-8zM6 354v8l916 -4v-8zM120 -264q9 23 32 33l118 51l133 57q49 20 122 48t137 46q23 6 45 -5t28 -34.5t-5 -46t-36 -28.5q-61 -18 -129.5 -44t-115.5 -46l-130 -54l-122 -55 q-23 -8 -45.5 1t-31.5 31.5t0 45.5z" />
<glyph unicode="`" d="M0 0v25l926 -5v-24zM0 1432v8h158l-4 20q-4 25 10 45.5t38.5 24.5t45 -10.5t24.5 -38.5q2 -20 9 -41h643v-8h-639q14 -43 38.5 -86t71.5 -109l64 -92q23 -33 0 -66l463 -2v-8l-469 2q-6 -6 -11 -8q-41 -27 -75 8h-363v8h356q-12 20 -49 74l-61 88q-25 35 -51.5 89 t-38.5 102h-160zM2 717v8l922 -6v-8zM6 354v8l916 -4v-8z" />
<glyph unicode="a" d="M0 0v25h180q-78 31 -121 108q-38 72 -38 163q0 28 4 58h-19v8h19q23 170 145 353l-168 2v8l174 -2q14 23 31 43q86 113 196.5 197t221.5 106l-621 2v8l680 -2h8q20 10 43 4q6 -2 10 -4h177v-8h-146q35 -8 62 -45q4 -6 7 -11t4 -7t3 -2l2 -5q16 -18 15 -42.5t-17 -41.5 q-20 -18 -45 -16q1 -24 1 -49q0 -62 -7 -131h123v-8h-125q-10 -80 -33 -160q12 -90 37 -193h119v-8h-117q27 -115 86 -323q0 -2 2 -7h33v-24h-35q-8 -33 -41 -43q-9 -2 -17 -2q-15 0 -29 7q-22 11 -28 36v2zM0 1432v8h924v-8h-924zM143 354q-3 -25 -4 -48q0 -67 27 -116 q32 -64 103 -64q11 0 22 1q88 8 155 76q60 61 111 149zM145 362l416 -2q49 93 82 199q-10 76 -14 148v6l-312 2l-16 -21q-131 -170 -156 -332zM324 723l305 -2q2 113 10 209q2 10 2 22q-162 -41 -317 -229zM373 23l395 -3q-55 199 -84 320q-66 -133 -152 -219 q-68 -68 -159 -98z" />
<glyph unicode="b" d="M0 0v25h156q-8 20 -15 51q-10 53 -16 139q-4 59 -8 139h-111v8h111q0 14 -1 33t-1 31v18v9h-4q-25 4 -39.5 23.5t-12.5 43.5q12 98 47 172l-2 25h-102v8h102q-4 172 -6 346h-94v8h94q-1 88 -1 176.5t1 176.5h-98v8h98q0 94 2 188q0 25 18.5 41.5t43 16.5t41 -18.5 t16.5 -43.5q-2 -92 -2 -184h707v-8h-707q-1 -88 -1 -176t1 -177l705 -2v-8l-705 2q0 -111 4 -219q131 121 289 170q61 19 113 19q49 0 90 -17q106 -43 131 -182q8 -57 8 -123h72v-8h-74q-6 -182 -88 -353h160v-8h-164l-21 -37q-27 -45 -86 -116.5t-127 -130.5 q-27 -25 -51 -43l453 -3v-24l-488 2q-35 -23 -67 -37q-49 -22 -91 -22q-46 0 -83 26q-18 12 -31 35h-166zM225 668l8 -219q0 -8 1.5 -38t1.5 -51h391q4 6 8 15q90 154 96 338l-475 2q-19 -22 -31 -47zM236 352q2 -72 6 -127q6 -80 16 -127q4 -23 10 -37q6 -3 14 -3 q17 0 42 12q53 23 122 84q102 92 175 198h-385zM262 723l471 -2q0 53 -8 100q-12 76 -57 94q-18 6 -41 6q-35 0 -82 -14q-76 -23 -154 -74t-117 -96z" />
<glyph unicode="c" d="M0 0v25h160q-96 98 -96 278q0 25 2 51h-60v8h60q4 41 10 84q25 127 104 269l-178 2v8l182 -2q68 117 152 207t174 139l-506 2v8l520 -2q98 51 193 51q65 0 127 -24q20 -8 30 -27h48v-8h-43q8 -20 0 -41q-8 -25 -30.5 -34t-45.5 -1q-45 17 -90 17q-139 0 -291 -160 q-53 -57 -98 -127l600 -4v-8l-607 4q-98 -154 -122 -289q-6 -35 -11 -64l545 -4q16 16 37.5 16.5t40.5 -12.5l4 -4h111v-8h-105q14 -18 13.5 -36t-13.5 -35q-109 -135 -166 -189q-43 -39 -88 -67l363 -3v-24l-404 2q-96 -52 -178 -52q-79 0 -147 48l-9 6h-188zM0 1432v8h924 v-8h-924zM184 354q-2 -25 -2 -48q0 -68 18 -118q24 -68 64 -98q31 -23 72 -25h6q40 0 98 25q64 27 133 90q50 43 150 170z" />
<glyph unicode="d" d="M0 0v25h117q-80 102 -101 288q-4 20 -4 41h-6v8h4q-2 30 -2 60q0 152 43 295h-49v8h51q4 16 10 31q82 233 252 315h-311v8h330q67 28 129 28q64 0 121 -30h116v50q0 162 11 305h-711v8h711q4 55 10 106q5 24 23 40q15 13 34 13q4 -1 8 -1q24 -4 40 -21.5t14 -42.5 q-6 -47 -11 -94h95v-8h-95q-10 -141 -10 -301v-54h103v-8h-103q2 -150 15 -350h90v-8h-90q4 -68 13 -193t11 -160h64v-8h-64q12 -193 19 -330h49v-24h-49q-2 -23 -18.5 -39t-39.5 -16q-25 0 -42 16t-19 39l-283 2q-96 -68 -180 -68q-67 0 -127 43q-14 12 -29 27h-139z M131 354q0 -14 2 -28q23 -195 107 -256q26 -19 58 -19q65 0 153 80q76 70 118 127q29 41 62 94zM131 362l506 -2l76 127q6 11 16 17q-10 131 -14 209l-539 2q-48 -134 -48 -282q0 -35 3 -71zM178 723l537 -2v6q-13 8 -19 18q-14 25 -37.5 70t-42 71.5t-41.5 51.5 q-50 50 -113 50q-39 0 -83 -19q-131 -55 -201 -246zM506 23l252 -3q-5 121 -17 285q-41 -68 -77 -117q-49 -68 -132 -143zM600 1069q31 -18 62 -49q20 -20 40 -49q-2 51 -2 98h-100z" />
<glyph unicode="e" d="M0 0v25h190q-70 37 -114 106q-74 110 -74 272q0 45 6 93q14 113 58 221h-64v8h68q98 240 282 346h-348v8h363q53 27 110 41q35 8 69 9q85 0 165 -52h211v-8h-199q57 -39 98 -96q73 -102 73 -210q0 -22 -3 -44h33v-8h-35q-10 -57 -43 -107q-10 -16 -33 -29q-12 -4 -29 -10 q-27 -8 -71 -18q-74 -16 -199 -41q-57 -10 -135 -22.5t-127 -21.5t-66 -11q-8 -2 -15 -2q-27 0 -44 24q-5 -38 -6 -75q0 -18 2 -36l799 -4v-8h-150q4 0 6 -2q20 -14 26.5 -37.5t-5.5 -44.5q-55 -92 -113.5 -151.5t-136.5 -91.5l377 -3v-24l-453 2q-27 -6 -57 -10 q-29 -3 -57 -3q-56 0 -107 13zM0 1432v8h924v-8h-924zM125 354q8 -96 49 -159q62 -91 187 -91q20 0 42 2q100 12 164 64q61 49 129 158q11 16 27 22zM139 557q11 6 23 8q16 4 67 13l127 20l138 25q123 23 192 39l62 16q6 2 8 4q10 12 14 31l-575 2q-35 -76 -56 -158z M199 723l573 -4q2 14 2 28q0 30 -8 64q-12 51 -41 92q-43 59 -103 88q-40 20 -79 20q-19 0 -37 -5q-94 -23 -174 -98.5t-133 -184.5z" />
<glyph unicode="f" d="M0 0v25l289 -2q-16 111 -29 329l-254 2v8l254 -2l-2 27q-2 53 -8 129q-92 -47 -160 -78q-23 -10 -45 -2t-32.5 30.5t-2.5 45.5t31 33q78 37 199 100q-4 39 -7 70l-231 2v8l229 -2q-10 145 -10 257q0 49 2 91h-219v8h219q6 197 53 353h-276v8h279q33 104 97 201.5 t142 144.5q59 35 115 35q44 0 87 -22q95 -50 154 -214q8 -23 -2 -45t-32.5 -30.5t-45 2t-30.5 32.5q-45 121 -100 150q-14 8 -30 8q-24 0 -54 -19q-49 -29 -97.5 -96t-76.5 -147h518v-8h-523q-6 -16 -10 -33q-43 -143 -49 -320l580 -2v-8l-582 2q-1 -27 -1 -58 q0 -121 13 -290h37q203 104 342 156q23 8 45.5 -2.5t30.5 -33t-2 -45t-33 -30.5q-55 -20 -115 -47l267 -2v-8l-285 2q-86 -39 -207 -101l-67 -37q8 -111 12 -180l2 -35l543 -2v-8l-543 2q12 -221 29 -329l518 -3v-24l-514 2q6 -37 14 -74q6 -23 -7 -44t-37 -26q-7 -2 -14 -2 q-16 0 -32 10q-21 13 -25 38q-12 47 -18 98zM352 715l2 -10l19 10h-21z" />
<glyph unicode="g" d="M0 0v25h123l-2 2q-35 43 -53.5 100t-20.5 93t-2 95v39h-39v8h39q8 195 84 355h-127v8h131q74 154 215 285q41 39 68 61h-412v8h422q47 37 90 62q79 46 146 46q55 0 102 -32q25 -16 45 -49l12 -21l4 -8h97v-8h-91q12 -18 7.5 -41.5t-23.5 -36.5q-20 -16 -44 -11.5 t-38 24.5q-8 8 -16 22l-10 18q-6 10 -9 13q-15 11 -37 11q-36 0 -88 -30q-55 -33 -143 -114q-102 -96 -164 -201l324 -2q4 47 6 110q1 15 1 38.5t-1 56.5v45v8v6q0 2 2 8q2 8 4 15q8 14 23 24q16 9 31 9q16 0 32 -11q8 -6 14.5 -14t8.5 -12l2 -5v-8l2 -4v-4v-2v-4v-41v-8 q4 -88 22 -207l187 -2v-8l-187 2q8 -57 27.5 -165t26.5 -153l6 -37h125v-8h-123q26 -175 26 -304v-26h101v-24h-101q-4 -113 -30 -207q-33 -125 -159 -199q-108 -63 -217 -63q-18 0 -36 2q-96 10 -183 83t-147 161q-14 18 -9 42.5t24.5 39t44 9.5t39.5 -26q51 -74 116 -129 q68 -55 127 -61q12 -1 24 -1q78 0 153 44q87 51 108 127q23 82 27 178l-258 2q-41 -41 -87 -57q-34 -14 -67 -14q-77 0 -150 73h-145zM0 1432v8h924v-8h-924zM164 315q0 -80 9 -128t38 -83q48 -58 87 -58q11 0 21 5q53 20 113 125q41 74 78 176l-346 2v-39zM164 362l350 -2 q45 131 59 224q11 57 17 129l-328 2q-88 -156 -98 -353zM471 23l236 -3v16q0 129 -29 316h-41q-47 -137 -100 -233q-33 -57 -66 -96zM639 360h39l-4 17l-10 63z" />
<glyph unicode="h" d="M0 0v25h104v6q0 55 5 157q1 36 1 77.5t-1 88.5h-103v8h103q-2 31 -4.5 87.5t-2.5 74.5q-2 84 -10 193h-90v8h90q-25 315 -24 346h-64v8h62q-2 59 -2 116q0 127 12 237h-76v8h76q10 88 28 174q4 25 25 38q15 9 32 9q7 0 13 -1q24 -5 37.5 -25.5t7.5 -45.5 q-14 -76 -22 -149h727v-8h-729q-13 -115 -12 -248q0 -51 1 -105l414 -2q25 4 49 0h275v-8h-244q92 -35 153 -182q29 -70 43 -168h50v-8h-47q14 -111 16 -271v-82h29v-8h-29q0 -61 -4 -171.5t-4 -158.5h41v-24h-41v-2q0 -25 -17.5 -42.5t-42 -17.5t-42 17.5t-17.5 42.5v2 l-533 2l-2 -8q-4 -18 -6 -31q-8 -27 -24 -41q-18 -14 -41 -14t-39 16q-10 10 -17 25q-2 6 -2 12v4v6v15v18h-102zM186 1071q2 -66 12.5 -196t12.5 -152h80q35 82 78 154q92 158 196 192zM211 715q8 -101 10 -187q31 100 68 187h-78zM238 23l528 -3q0 47 4 159t4 171l-477 2 q-16 -63 -37 -155q-2 -14 -8 -54l-8 -80q-4 -20 -6 -40zM299 360l475 -2v80q-2 166 -18 275l-338 2q-68 -145 -119 -355zM422 723l332 -2q-12 72 -33 121q-20 53 -45 81.5t-38 34.5q-10 4 -19 4l-7 -1q-63 -12 -141 -146q-26 -47 -49 -92z" />
<glyph unicode="i" d="M0 0v25l365 -2q-15 132 -15 279v50l-344 2v8l344 -2q4 162 27 355l-375 2v8l375 -2q16 131 45 313q4 20 20 35h-438v8h449q18 8 39 6q10 -2 18 -8h412v-8h-400q23 -20 19 -53q-29 -170 -43 -295l426 -2v-8l-428 2q-23 -193 -27 -353l453 -2v-8l-453 2q-1 -30 0 -59 q0 -145 16 -270l441 -3v-24l-443 2q-10 -39 -49 -45h-6q-19 0 -36 10q-19 12 -23 35zM0 1432v8h467q11 20 33 28q10 4 19 4q13 0 26 -6q18 -8 28 -26h351v-8h-346q6 -23 -5 -43l-30 -68q-10 -23 -33 -31q-10 -3 -20 -3q-14 -1 -26 5q-22 10 -30 33t2 45l27 62h-463z" />
<glyph unicode="j" d="M0 0v25l532 -2q31 145 31 329l-557 2v8l557 -2q0 76 -6 175q-4 76 -12 178l-543 4v8l543 -4q-20 244 -23 348l-518 2v8l516 -2v66q0 25 17.5 42t42 17t42 -17.5t17.5 -41.5v-66h283v-8h-281q2 -102 23 -348l260 -2v-8l-260 2q8 -104 12 -170q6 -100 6 -183l240 -2v-8 l-240 2q0 -182 -29 -329l273 -3v-24l-277 2q-8 -39 -18 -76q-39 -139 -126 -248.5t-190 -140.5q-36 -11 -68 -11q-81 0 -141 70q-80 90 -92 293q-2 25 14.5 43.5t41 20.5t43 -14t20.5 -41q10 -162 64 -224q24 -28 58 -28q13 0 28 4q63 20 131.5 105t101.5 204q6 20 10 43z M0 1432v8h492q-6 12 -7 26q0 25 17.5 42.5t42 17.5t42 -17.5t17.5 -42.5q0 -14 -6 -26h326v-8h-330q-4 -4 -8 -7q-16 -18 -41 -18t-41 18q-4 2 -8 7h-496z" />
<glyph unicode="k" d="M0 0v25h119q-20 145 -25 329h-88v8h86q-1 58 -1 147t1 208h-90v8h90q2 111 2 172q0 53 -2 174h-88v8h88q-3 98 -3 177q0 105 5 176h-94v8h96q4 57 10 108q4 26 24 40q16 12 35 11q5 -1 9 -1q24 -4 38.5 -23t12.5 -43q-6 -45 -10 -92h709v-8h-709q-6 -73 -6 -193 q0 -72 2 -160l393 -2l23 37q14 20 37.5 26.5t44.5 -5.5q29 -17 29 -48q0 -5 -1 -10h185v-8h-187q-2 -8 -6 -16q-63 -102 -227 -332l422 -2v-8l-428 2l-25 -31q-129 -180 -190 -289l61 -33l580 -2v-8l-566 2q307 -168 488 -325q4 -2 6 -7h76v-24h-64q8 -31 -12 -53 q-16 -18 -41 -20.5t-43 14.5l-72 61h-452l6 -29q4 -25 -10 -45q-16 -20 -40 -24q-5 -1 -10 -1q-18 0 -34 11q-20 14 -24.5 38.5t-6.5 51.5h-123zM211 508q51 84 139 207h-139v-207zM211 723h145l19 27q178 248 225 319l-389 2q2 -115 2 -174q0 -63 -2 -174zM215 295 q6 -147 23 -272h424q-164 122 -447 272z" />
<glyph unicode="l" d="M0 0v25l406 -2q-66 74 -91 182q-16 72 -24 147l-285 2v8l283 -2q-7 83 -7 195q0 74 3 160l-283 2v8l283 -2q10 262 10 281v67h-291v8h291q0 61 -2 180t-4 173h-289v8h289q0 88 2 157q0 25 18.5 41.5t43 16.5t41 -18.5t16.5 -43.5q-2 -70 -2 -153h516v-8h-516 q2 -53 4 -172t2 -181l508 -2v-8l-508 2v-67q0 -45 -11 -281l521 -4v-8l-521 4q-4 -82 -4 -152q0 -119 11 -203l512 -2v-8l-512 2q8 -63 20 -119q14 -61 40 -100t75 -80q16 -12 20 -30l361 -3v-24l-359 2q-4 -16 -14 -27q-14 -20 -39 -22h-5q-22 0 -38 14q-23 16 -41 35z" />
<glyph unicode="m" horiz-adv-x="1312" d="M0 0v25h1016q-15 107 -15 272v57h-315q-6 -86 -10 -127q-6 -74 -14 -112q-6 -29 -15 -45q-8 -18 -24 -29q-18 -13 -37 -13q-15 0 -31 9q-8 6 -15.5 13t-9.5 13l-2 7q-2 4 -4 10q0 6 -2 12q-2 12 -2 29q-2 29 -4 78q0 20 -1 41.5t-2 37t-1 29.5v12v35h-209v-6 q2 -96 2 -129q-2 -76 -14 -110q-16 -41 -49 -54q-14 -5 -28 -5q-27 0 -52 20q-14 8 -23 26q-2 6 -4 15q-4 12 -10 32q-8 33 -19 84l-24 127h-76v8h76q-2 4 -2 7q-2 16 -4 53q-2 33 -4 47q-6 53 -9 76l-4 6l-2 16v6l-8 99q-2 25 -2 45h-45v8h43q-6 121 -6 281q0 25 17.5 42 t42 17t42 -17.5t17.5 -41.5q0 -164 6 -281h53q18 106 47 201q33 104 51 145h-311v8h315q6 12 15 25q39 66 94 78q11 2 22 2q58 0 109 -64q14 -16 25 -41h129q63 123 155 176q39 22 74 22q25 0 49 -11q47 -23 76 -84q20 -41 33 -103h227v-8h-225q12 -59 18 -139q8 -90 8 -207 h199v-8h-199q0 -47 -1 -96.5t-2 -85t-1 -39.5q0 -6 -4 -134h211v-8h-211q-1 -33 0 -65q0 -164 17 -264h202v-25h-204q-8 -37 -48 -45h-6q-19 0 -36 10q-19 12 -25 35h-1020zM0 1432v8h1323v-8h-1323zM166 717q0 -18 2 -37l6 -86q0 -2 2 -4q0 -4 2 -10q2 -21 10 -84 q10 119 27 221h-49zM303 362h209q-4 313 -4 355h-172q-20 -117 -31 -256q-2 -33 -2 -99zM338 725h170q-4 133 -16 215q-4 47 -13 78l-10 29q-18 10 -18 16q-8 -8 -17 -21q-20 -35 -55 -149q-25 -82 -41 -168zM586 1071q4 -10 8 -24q10 -37 16 -93q9 -61 13 -155q6 31 16 69 q31 121 70 203h-123zM686 362h315q0 8 2.5 59.5t2.5 78.5q0 4 1 39.5t2 83t1 94.5h-281q-6 -39 -37 -287q-2 -18 -6 -68zM729 725h281q0 111 -9 197q-6 90 -20 149h-135q-55 -84 -92 -231q-13 -54 -25 -115zM852 1079h127q-8 31 -18 51q-11 23 -19 27q-4 0 -12 -4 q-43 -25 -78 -74z" />
<glyph unicode="n" d="M0 0v25h160v2v12q-4 39 -10.5 124t-12.5 130q-2 29 -6 61h-125v8h123q-39 303 -43 355h-84v8h82q-8 105 -8 199q0 47 2 90q2 25 20.5 41t43 14t41 -20t14.5 -43q-2 -38 -2 -79q0 -95 10 -204h133q39 115 90 209t107 137l-531 2v8l541 -2q20 14 41 23q30 12 58 13 q49 0 95 -36h183v-8h-172l6 -6q55 -51 90 -143.5t45 -186.5v-14h33v-8h-31q5 -67 5 -170q0 -52 -1 -113q0 -33 -4 -70h29v-8h-29q-6 -80 -49 -330h82v-24h-86q-4 -23 -23.5 -37t-44.5 -10q-41 8 -47 47l-406 2l-2 -8q-10 -27 -20 -45q-20 -31 -53 -39q-10 -3 -19 -3 q-16 0 -30 9q-25 10 -33 37q-8 18 -6 47v4h-156zM0 1432v8h924v-8h-924zM205 715q2 -10 45 -355h6q33 212 80 355h-131zM250 352l2 -12l2 12h-2h-2zM326 23l399 -3q43 274 49 330l-399 2q-8 -45 -17 -104q-2 -4 -7 -61.5t-11 -96.5t-14 -67zM375 360l399 -2q4 39 4 74 q1 61 1 112q0 102 -5 167l-313 4q-49 -141 -86 -355zM463 721l309 -2v2q-8 78 -34.5 150.5t-61.5 105.5q-18 17 -33 17q-6 0 -12 -3q-45 -18 -101 -117q-36 -69 -67 -153z" />
<glyph unicode="o" d="M0 0v25h184q-76 57 -112 159q-27 76 -29 170h-37v8h37v16q0 89 20 189q16 74 43 150h-104v8h107q45 119 108 221q45 72 94 125h-307v8h315q74 74 150 103q27 10 66 10l22 -2h18q25 2 42.5 -15.5t19.5 -41.5v-13q29 -18 55 -43h230v-8h-222q72 -68 117 -174 q33 -80 49 -176h58v-8h-56q9 -66 9 -133q0 -50 -5 -101q-6 -59 -20 -119h70v-8h-72q-59 -225 -205 -327l281 -3v-24l-322 2q-84 -47 -185 -47q-35 0 -73 6q-70 10 -125 43h-221zM0 1432v8h924v-8h-924zM162 354q2 -74 22 -129q44 -129 178 -149q28 -4 55 -5q99 0 173 60 q94 76 137 219zM162 362l567 -4q18 61 25 131q5 45 5 90q0 67 -11 134l-515 2q-35 -86 -53 -172q-18 -87 -18 -165v-16zM236 723l509 -2q-14 70 -38 129q-68 164 -199 199q-13 4 -21 12q-86 -47 -170 -178q-47 -76 -81 -160z" />
<glyph unicode="p" d="M0 0v25h68q6 268 8 329h-70v8h70v37q1 43 1 122.5t-1 195.5h-74v8h74q0 219 4 346h-76v8h78v19q2 25 19.5 42t41.5 15q23 -2 39.5 -17.5t18.5 -35.5q95 33 193 33q16 0 32 -1q115 -6 213 -57h283v-8h-267q100 -53 166 -144t78 -206h25v-8h-23q2 -21 2 -44t-2 -46 q-12 -137 -113 -263h134v-8h-140q-66 -78 -157 -141q-211 -145 -439 -164v-20l740 -5v-24l-740 4q-8 -307 -8 -496q0 -25 -17.5 -42t-42 -17t-42 17.5t-17.5 41.5q0 188 9 496h-68zM0 1432v8h924v-8h-924zM190 164q190 20 367 141q31 23 59 47l-421 2q-3 -75 -5 -190z M195 362l430 -2q145 127 157 273q2 16 2 32q0 24 -4 46l-585 4q1 -115 1 -195t-1 -125v-33zM195 723l585 -4q-27 164 -182 248q-92 47 -198 49h-8q-101 0 -195 -45q-2 -94 -2 -248z" />
<glyph unicode="q" d="M0 0v25h156q-113 104 -127 256q-2 35 -2 73h-21v8h21q2 119 32 220q20 61 58 135h-115v8h121q104 199 246 309q27 20 53 37h-418v8h432q74 40 144 40q19 0 38 -3q49 -8 93 -35v25q0 25 17 42t42 17t42 -17.5t17 -41.5v-29h93v-8h-93v-127l17 -29q7 -15 7 -28 q0 -24 -22 -43l3 -123h90v-8h-90q3 -145 3 -253q0 -55 -1 -100h86v-8h-86q-2 -113 -7 -211q-2 -49 -6 -119h103v-24h-105q-8 -127 -11 -182q-2 -32 -2 -80q0 -32 1 -71q2 -97 14 -173q4 -25 -11 -45t-38 -25q-6 -1 -11 -1q-18 0 -33 13q-21 15 -25 38q-14 91 -14 233 q0 126 11 293l-149 2q-84 -66 -170 -70h-10q-97 0 -189 72h-184zM0 1432v8h924v-8h-924zM145 354q0 -33 2 -61q10 -109 91 -182q70 -64 135 -64h4q57 4 119 57q91 84 161 248zM145 362l517 -2q10 23 18 48q8 26 37 36q0 104 -2 269l-461 2q-55 -90 -80 -170 q-27 -82 -29 -183zM258 723l457 -2q0 20 -1 58t-1 69v61q-51 80 -113 90q-9 1 -18 1q-61 0 -140 -60q-98 -76 -184 -217zM582 23l123 -3q4 78 6 123q2 27 2 52q-61 -106 -131 -172z" />
<glyph unicode="r" d="M0 0v25h162q-2 8 -2 16q-6 37 -15 92q-10 90 -22 221h-117v8h115l-2 23q-25 274 -29 332h-88v8h88q-10 149 -10 274v41q0 16 10 31h-86v8h92q18 18 45 19q25 0 41 -19l463 -2q20 8 39 8q16 0 31 -6v-2h207v-8h-193q33 -20 43 -70q7 -29 7 -73q0 -17 -1 -37 q-2 -25 -19.5 -42.5t-42 -15t-42 19.5t-15.5 42q2 29 0 51l-6 -8q-57 -63 -147 -215l418 -2v-8l-422 2q-113 -193 -164 -353l584 -2v-8l-586 2q-16 -47 -27 -94q-2 -12 -10 -123q-4 -53 -6 -78q-4 -23 -6 -34l639 -3v-24l-645 2q0 -2 -2 -2q-8 -20 -29 -31q-13 -5 -25 -5 q-19 0 -37 13q-18 14 -18 25v2h-170zM0 1432v8h924v-8h-924zM188 1071q11 -17 11 -35v-40q0 -122 10 -273h162l30 55q98 166 164 240q31 33 58 49l6 2zM209 715l24 -289q47 135 132 289h-156z" />
<glyph unicode="s" d="M0 0v25h76q-30 43 -30 103q0 59 28 134q8 23 30.5 33t45 2t33 -30.5t1.5 -45.5q-21 -56 -21 -90q0 -33 19 -47q25 -19 77 -19q37 -1 87 9q121 24 248 88q119 61 158 112q20 29 16 48q-2 12 -16 28l-746 4v8l737 -4l-2 2q-49 45 -211 115q-215 92 -272 129 q-84 53 -121 113h-135v8h131q-27 44 -27 93v7q4 168 156 246h-258v8h275q45 20 96 29q36 6 72 6q91 0 176 -37h299v-8h-281q74 -35 125 -92q16 -18 14 -43t-20.5 -41t-43 -14t-40.5 20q-47 55 -126 80q-49 16 -98 16q-29 0 -59 -6q-76 -12 -121 -55q-47 -45 -47 -116 q0 -46 68 -95l631 -4v-8l-619 4l17 -10q59 -37 253 -121q184 -80 246 -135q47 -41 60 -91h41v-8h-37q0 -6 2 -10q2 -11 2 -22q0 -57 -43 -113q-53 -74 -199 -148q-37 -18 -74 -34l353 -3v-24l-416 2q-74 -27 -141 -39q-59 -11 -108 -11q-92 0 -148 40q-8 6 -15 12h-98z M0 1432v8h924v-8h-924z" />
<glyph unicode="t" d="M-2 743v6q0 23 14 39q16 20 39 21q70 6 152 25q-8 150 -8 237h-191v8h189v33q0 182 20 320h-213v8h215q16 98 43 184q8 23 30 34q14 7 28 7l18 -3q22 -7 33.5 -29.5t5.5 -45.5q-23 -70 -37 -147h588v-8h-590q-22 -127 -21 -297v-56l609 -2v-8l-609 2q0 -80 6 -209 q55 14 168 47l177 49q23 6 44 -6t27 -35.5t-6 -45t-37 -27.5l-176 -49q-123 -37 -190 -54l2 -18l596 -4v-8l-596 4q2 -29 2 -56q8 -233 12 -299l580 -2v-8l-578 2q0 -20 2 -39q16 -172 53 -239q16 -29 33 -35q18 -6 49 6q102 43 277 260q16 20 40.5 22.5t44 -13t21.5 -40 t-12 -43.5q-109 -135 -195 -208l269 -3v-24l-299 2q-53 -43 -101 -64q-42 -17 -80 -17q-30 0 -57 11q-49 18 -82 70l-307 2v25l293 -2q-47 90 -66 280l-4 51h-217v8h217q-4 66 -12 293q0 27 -2 58q-78 -14 -146 -23h-8q-29 0 -47 27h-6v8h2q-4 8 -6 18z" />
<glyph unicode="u" d="M0 0v25h231q-100 78 -137 329h-88v8h88q-4 18 -6 39q-20 180 -25 295v21h-61v8h61q-3 80 -3 145q0 124 12 197q2 2 2 4h-70v8h72q8 18 26.5 28.5t38.5 8.5q33 -6 45 -37l551 -2q20 10 45 4l9 -4h131v-8h-119q10 -8 18 -22q4 -8 6 -21q4 -16 7 -39q4 -37 4 -96 q0 -111 -4 -154q-2 -8 -3 -18h93v-8h-95q-4 -33 -12 -68q-2 -35 -4 -102q-5 -88 -5 -143q0 -18 1 -33v-7h113v-8h-113q2 -188 55 -295q8 -16 6 -35h56v-24h-66q-8 -12 -22 -21q-12 -6 -26 -6q-8 0 -16 2q-22 6 -34 25l-367 2q-33 -12 -64 -12t-59 12zM0 1432v8h924v-8h-924z M182 700q4 -109 25 -286q2 -27 6 -52l365 -2q83 149 120 299v54l-516 2v-15zM182 723l516 -2q-6 147 -6 162q0 66 2 104q2 25 5 40t12 28q4 8 14 14l-537 2q4 -12 2 -24q-12 -62 -12 -178q0 -65 4 -146zM215 354q31 -203 96 -241q11 -7 24 -7q40 0 103 62q67 67 135 184z M446 23l304 -3q-54 119 -60 299q-80 -150 -168 -235q-39 -39 -76 -61z" />
<glyph unicode="v" d="M0 0v25l301 -2q-33 29 -59 73q-51 86 -95 244l-4 14h-137v8h135q-39 147 -69 355h-70v8h68l-9 51q-10 68 -10 78q-2 2 -3 6t-5 12.5t-8 18.5q-11 26 -11 49q0 25 13 47q14 27 43 33q27 8 53 -10q14 -10 27 -33l10 -19q4 -6 5 -8t3 -4q16 -18 14 -42.5t-20 -41.5 q-2 0 -2 -2q0 -4 10 -67l10 -70l533 -2q61 209 72 319q2 16 12 29l-803 2v8l809 -2q20 18 47 17q20 -2 35 -17h27v-8h-21q14 -18 12 -41q-10 -109 -67 -309h78v-8h-80q-37 -133 -80 -252l-39 -101h197v-8h-201q-49 -115 -100 -194q-55 -90 -113 -133l418 -3v-24l-457 2 q-23 -10 -43 -14q-13 -2 -25 -2q-34 0 -65 16zM0 1432v8h924v-8h-924zM190 715q33 -201 72 -344l2 -11h332q27 63 55 140q37 100 70 213zM266 352q37 -127 78 -194q34 -56 58 -56h4q47 8 114 115q35 57 72 135h-326z" />
<glyph unicode="w" horiz-adv-x="1312" d="M0 0v25h283q-6 16 -13 34q-2 8 -41 134l-49 161h-174v8h172q-66 219 -98 355h-78v8h76q-33 139 -51 262q-2 25 12 44.5t38.5 22.5t44 -11.5t23.5 -38.5q18 -127 56 -279h399q2 8 6 16q8 23 17 37q16 27 36 37q16 8 30 8q23 0 42 -20q12 -10 19 -29q4 -14 8 -37 q0 -6 2 -12h391q23 176 23 315q0 16 8 31h-1178v8h1184q18 20 45 20.5t45 -20.5h49v-8h-43q8 -14 8 -31q0 -141 -22 -315h57v-8h-57q-14 -109 -56 -355h117v-8h-119q-14 -86 -22 -139q-18 -104 -27 -137q-6 -31 -16 -53h192v-25h-202l-2 -4q-33 -57 -84 -64h-10 q-35 0 -72 25q-25 16 -51 43h-420q-8 -10 -15 -20q-41 -53 -90 -60h-8q-30 0 -55 25q-12 12 -25 35q-6 8 -12 20h-293zM0 1432v8h1323v-8h-1323zM203 717q31 -125 100 -355h199l4 17q12 41 34.5 133t34.5 133q11 41 23 72h-395zM305 354l39 -129q33 -115 39 -127 q6 -21 12 -37q16 25 31 64q33 80 74 229h-195zM510 25h387q-49 57 -102 149q-51 90 -93 180h-79l-2 -6q-45 -176 -84 -268q-12 -31 -27 -55zM625 362h73q-35 78 -43 117zM760 717q4 -31 6 -72q0 -8 2 -96q2 -41 2 -45q8 -39 59 -142h265q43 263 55 355h-389zM834 354 q31 -63 63 -121q55 -92 98 -141q21 -25 37 -35q8 18 17 49q8 27 22 130l21 118h-258z" />
<glyph unicode="x" d="M0 0v25h90q2 10 8 18q59 106 193 309l-285 2v8l291 -2l68 107q-106 178 -154 248l-209 2v8l203 -2q-4 8 -28.5 42t-33.5 48l-24 43q-18 29 -29.5 55.5t-19.5 55.5q-6 23 5 44t34.5 28.5t45 -4t28.5 -35t15.5 -44t22.5 -43.5l23 -36q8 -14 30.5 -45t30.5 -46l43 -63 l170 -2q102 188 146 348l-660 2v8l662 -2l12 53q4 23 24.5 37.5t44 9t38 -26t8.5 -44.5q-2 -14 -7 -29h136v-8h-138q-37 -164 -131 -348l271 -2v-8l-275 2q-47 -90 -112 -197l-33 -51l65 -105l353 -2v-8l-347 2q111 -174 222 -282q18 -20 16 -50h113v-24h-121l-8 -12 q-18 -16 -43 -16.5t-43 16.5l-11 12l-491 4l-8 -14q-12 -23 -36 -29q-8 -2 -16 -2q-15 0 -28 8q-23 12 -29 37h-92zM0 1432v8h924v-8h-924zM223 25l453 -2q-113 121 -242 329h-2q-158 -242 -209 -327zM352 715l84 -135q45 72 78 133z" />
<glyph unicode="y" d="M0 0v25l299 -2q-35 25 -63 63q-53 72 -91 199q-10 33 -18 69h-121v8h119q-25 102 -47 250q-6 49 -15 105h-61v8h61l-22 193q-14 125 -18 153h-19v8h19l-5 27q-2 23 13.5 42t39 22.5t43 -12t23.5 -40.5l4 -39l582 -2v6l2 19v4v4v2q2 4 2 6q2 6 4 10q4 8 8 15q18 20 45 20 q16 0 29.5 -8t17.5 -16l7 -9l4 -12q2 -4 2 -8v-10q2 -8 2 -23h76v-8h-76q0 -31 2 -82v-268h76v-8h-76q0 -139 -27 -353h101v-8h-101q-10 -76 -22 -147q-14 -98 -33 -183h160v-24h-166q-45 -203 -103 -293q-53 -84 -159 -154q-94 -61 -172 -61q-37 0 -70 14q-27 12 -49 45 q-6 6 -9 11.5t-5.5 7.5t-4.5 6q-16 18 -14 43t20.5 41t43 14t41.5 -20q2 -2 24 -35l4 -4q10 -4 21 -4q40 0 104 43q84 53 123 114q45 72 84 234h-207q-27 -8 -55 -4q-14 2 -27 4zM0 1432v8h924v-8h-924zM143 1071q39 -344 39 -348l494 -2l12 76q18 106 29 219q4 29 6 53z M184 715l13 -86q27 -172 51 -269h321q66 167 105 353zM250 352l10 -35q31 -109 72 -161q31 -41 57 -43h5q24 0 55 30q47 47 92 152q12 26 24 57h-315zM487 23h158q20 90 37 198q10 63 18 129h-8l-41 -104q-55 -123 -119 -187q-23 -23 -45 -36zM696 358h6l3 27z" />
<glyph unicode="z" d="M0 0v25h80q0 4 2 8q4 8 8 18q8 14 23 37q23 35 63 90l107 137l30 37l-307 2v8l313 -2l256 340l11 13l-584 4v8l588 -4q98 133 151 217l33 49q-33 -2 -78 -10q-86 -16 -180 -45q-180 -53 -352 -80q-25 -2 -44.5 12.5t-22.5 39t11 44t39 23.5q164 23 336 76q35 10 88 22 l-567 2v8l600 -2q35 10 70 17q76 14 121 14q33 0 55 -4q29 -8 47 -27h25v-8h-19q4 -4 6 -10q12 -27 2 -60q-6 -16 -16 -36q-18 -35 -53 -91l-105 -151l187 -2v-8l-193 2l-59 -84l-203 -269l453 -2v-8l-459 2l-86 -110l-105 -136q-39 -51 -59 -81l53 -2q12 4 27 6 q41 10 170 47q266 74 360 74q25 0 42.5 -17.5t17.5 -42t-17.5 -42t-42.5 -17.5q-33 0 -84 -11h187v-24l-295 2l-135 -37q-170 -45 -177 -47q-71 -18 -110 -18q-12 0 -21 2q-35 8 -68.5 31.5t-39.5 66.5q-2 2 -2 4h-78zM0 1432v8h924v-8h-924z" />
<glyph unicode="{" d="M0 0v25l381 -2v92v84q0 39 -6 79.5t-19 73.5l-350 2v8l348 -2l-4 9q-33 80 -176 137q-4 0 -24 2q-23 4 -39 12q-37 23 -37 64q0 43 39 63q14 8 39 12h18q20 10 43 31l25 25l-236 2v8l242 -2q51 61 71 164q2 18 25 153l4 31h-340v8h342q14 92 31 160q25 117 59 193h-436v8 h440q43 96 105 137q27 18 65 16h15h6h6q25 2 44 -13t21.5 -39.5t-13 -44t-40.5 -21.5h-41h-2q-16 -12 -33 -35h351v-8h-355q-45 -72 -77 -220l-27 -135h457v-8h-457l-8 -47q-20 -137 -27 -160q-14 -80 -45 -139l539 -4v-8l-543 4q-35 -63 -90 -115l-12 -10q137 -68 182 -176 q10 -25 16 -54l445 -2v-8l-443 2q10 -39 15.5 -85t5.5 -85t1 -83t1 -76l424 -3v-24l-424 2v-12q6 -100 37 -152q35 -61 123 -86q23 -6 35 -27.5t5.5 -45t-28 -36t-45.5 -6.5q-133 37 -193 142q-45 76 -53 205v18z" />
<glyph unicode="|" d="M0 0v25l309 -2q-18 16 -20 38q-14 141 -27 291l-256 2v8l256 -2q-12 170 -18 355l-242 2v8l242 -2q-6 162 -11 348h-229v8h229q-2 154 -2 353h-231v8h231v37q0 25 17.5 42t42 17t42 -17.5t17.5 -41.5v-19v-18h574v-8h-574q0 -199 2 -353l570 -2v-8l-570 2q4 -186 10 -348 l562 -4v-8l-562 4q6 -186 19 -355l541 -2v-8l-539 2q10 -143 25 -278q2 -31 -21 -51l539 -3v-24z" />
<glyph unicode="}" d="M0 0v25l485 -2q2 43 -16 131q-27 143 -33 198l-430 2v8l428 -2l-2 15q-4 41 27 155q10 39 12 58q2 8 0 12t-8 8q-37 20 -39 23q-37 29 -47 84l-375 2v8l375 -2q-6 31 -2 76q4 43 28 207q4 37 9 65h-408v8h410q8 72 6 123q-4 164 -117 230h-303v8h287q-16 8 -37 16 q-23 8 -33 29.5t-2 45t29.5 34t46.5 2.5q117 -41 178 -127h455v-8h-449q61 -88 64 -226q2 -55 -7 -129h390v-8h-390q-4 -33 -12 -80q-25 -160 -26 -198q-6 -55 4 -66l4 -4l422 -2v-8l-406 2l4 -2q33 -20 53 -52q20 -33 15 -86q-4 -27 -17 -73q-25 -90 -22 -113q2 -12 4 -27 l367 -2v-8l-367 2q6 -45 31 -176q20 -98 18 -153l322 -3v-24l-324 2q-10 -86 -66.5 -162t-179.5 -170q-20 -14 -44.5 -11t-39 22.5t-11.5 44t22 38.5q106 84 147 134q43 55 51 104z" />
<glyph unicode="~" d="M0 0v25l926 -5v-24zM0 1432v8h924v-8h-924zM2 717v8h109q18 35 53 47q45 18 100 -12q25 -12 53 -37l310 -2q8 76 8 205q0 25 17.5 42t42 17t42 -17.5t17.5 -41.5q0 -127 -6 -205l176 -2v-8l-179 2q0 -12 -2 -23q-10 -84 -28 -137q-29 -82 -82 -109q-94 -47 -215 37 l-53 41q-27 23 -61 54.5t-42 37.5q-33 29 -53 41v-4q-10 -37 -10 -116q0 -25 -17.5 -42.5t-42 -17.5t-42 17.5t-17.5 42.5q0 94 14 147q4 18 12 35h-104zM4 1071v8l918 -2v-8zM6 354v8l916 -4v-8zM328 715l12 -10q14 -12 45 -41l55 -50q23 -20 45 -34q63 -43 95 -29 q10 4 22 41q14 41 23 113l2 8z" />
<glyph unicode="&#xa0;" horiz-adv-x="1312" d="M0 0v25h1339v-25h-1339zM0 1432v8h1323v-8h-1323zM2 717v8h1325v-8h-1325zM4 1071v8h1323v-8h-1323zM6 354v8h1325v-8h-1325z" />
<glyph unicode="&#xad;" d="M0 0v25l926 -5v-24zM0 1432v8h924v-8h-924zM2 717v8l922 -6v-8zM4 1071v8l918 -2v-8zM6 354v8l916 -4v-8zM80 589.5q-2 24.5 14 43t41 20.5q33 2 289 33q182 20 301 21q25 0 42 -17.5t17 -42t-17 -42t-42 -17.5q-102 0 -287 -21l-295 -32q-25 -2 -43 14t-20 40.5z" />
<glyph unicode="&#xe0;" d="M0 0v25h180q-78 31 -121 108q-49 94 -34 221h-19v8h19q23 170 145 353l-168 2v8l174 -2q14 23 31 43q86 113 196.5 197t221.5 106l-621 2v8l680 -2h8q20 10 43 4q6 -2 10 -4h177v-8h-146q35 -8 62 -45q4 -6 7 -11t4 -7t3 -2l2 -5q16 -18 15 -42.5t-17 -41.5 q-20 -18 -45 -16q4 -84 -6 -180h123v-8h-125q-10 -80 -33 -160q12 -90 37 -193h119v-8h-117q27 -115 86 -323q0 -2 2 -7h33v-24h-35q-8 -33 -41 -43q-25 -6 -46.5 5t-27.5 36v2zM0 1432v8h272l-59 61q-16 16 -14 41t19.5 42.5t42 15t42.5 -20.5q63 -70 150 -139h471v-8h-461 q41 -33 86 -64l108 -78l95 -63q20 -14 24 -39t-10 -45.5t-39 -24.5t-45 10q-25 18 -96 68l-111 78q-37 27 -93 72t-101 86h-281zM143 354q-12 -98 23 -164q37 -74 125 -63q88 8 155 76q60 61 111 149zM145 362l416 -2q49 93 82 199q-10 76 -14 148v6l-312 2l-16 -21 q-131 -170 -156 -332zM324 723l305 -2q2 113 10 209q2 10 2 22q-162 -41 -317 -229zM373 23l395 -3q-55 199 -84 320q-66 -133 -152 -219q-68 -68 -159 -98z" />
<glyph unicode="&#xe2;" d="M0 0v25h180q-78 31 -121 108q-49 94 -34 221h-19v8h19q23 170 145 353l-168 2v8l174 -2q14 23 31 43q86 113 196.5 197t221.5 106l-621 2v8h207q-23 12 -29 36t6 44q70 127 201 273h-389v8h395l101 104l4 6q10 16 12 21q37 55 92 41q47 -12 64 -70q2 -10 4 -16t2 -8 t1 -4.5t1 -4.5l37 -69h211v-8h-207q47 -84 100 -160q14 -18 11 -43t-22.5 -39t-44 -11t-38.5 23q-76 102 -141 230h-27q-14 -14 -49 -54l-51 -55l-43 -53q-29 -33 -46.5 -55.5t-38 -53.5t-36.5 -59q-8 -14 -23 -23l416 -2h8q20 10 43 4q6 -2 10 -4h177v-8h-146q35 -8 62 -45 q4 -6 7 -11t4 -7t3 -2l2 -5q16 -18 15 -42.5t-17 -41.5q-20 -18 -45 -16q4 -84 -6 -180h123v-8h-125q-10 -80 -33 -160q12 -90 37 -193h119v-8h-117q27 -115 86 -323q0 -2 2 -7h33v-24h-35q-8 -33 -41 -43q-25 -6 -46.5 5t-27.5 36v2zM143 354q-12 -98 23 -164 q37 -74 125 -63q88 8 155 76q60 61 111 149zM145 362l416 -2q49 93 82 199q-10 76 -14 148v6l-312 2l-16 -21q-131 -170 -156 -332zM324 723l305 -2q2 113 10 209q2 10 2 22q-162 -41 -317 -229zM373 23l395 -3q-55 199 -84 320q-66 -133 -152 -219q-68 -68 -159 -98z M561 1440h17l-7 12z" />
<glyph unicode="&#xe3;" d="M0 0v25h180q-78 31 -121 108q-49 94 -34 221h-19v8h19q23 170 145 353l-168 2v8l174 -2q14 23 31 43q86 113 196.5 197t221.5 106l-621 2v8l680 -2h8q20 10 43 4q6 -2 10 -4h177v-8h-146q35 -8 62 -45q4 -6 7 -11t4 -7t3 -2l2 -5q16 -18 15 -42.5t-17 -41.5 q-20 -18 -45 -16q4 -84 -6 -180h123v-8h-125q-10 -80 -33 -160q12 -90 37 -193h119v-8h-117q27 -115 86 -323q0 -2 2 -7h33v-24h-35q-8 -33 -41 -43q-25 -6 -46.5 5t-27.5 36v2zM0 1432v8h154q16 10 39 16q49 10 118 -16h398q14 16 36.5 18t40.5 -12q4 -2 9 -6h129v-8h-123 q23 -35 -2 -68q-4 -4 -33 -59q-27 -49 -59 -74q-76 -63 -203 -17q-29 10 -58 27l-71 37q-41 20 -51 25q-82 43 -107 36l-10 -16q-6 -23 -8 -63q0 -25 -18.5 -41.5t-43 -16.5t-41 18.5t-16.5 43.5q4 121 61 168h-141zM143 354q-12 -98 23 -164q37 -74 125 -63q88 8 155 76 q60 61 111 149zM145 362l416 -2q49 93 82 199q-10 76 -14 148v6l-312 2l-16 -21q-131 -170 -156 -332zM324 723l305 -2q2 113 10 209q2 10 2 22q-162 -41 -317 -229zM330 1432q20 -8 47 -23q152 -76 168 -82q63 -25 88 -6q12 12 29 41q32 58 40 70h-372zM373 23l395 -3 q-55 199 -84 320q-66 -133 -152 -219q-68 -68 -159 -98z" />
<glyph unicode="&#xe4;" d="M0 0v25h180q-78 31 -121 108q-49 94 -34 221h-19v8h19q23 170 145 353l-168 2v8l174 -2q14 23 31 43q86 113 196.5 197t221.5 106l-621 2v8l680 -2h8q20 10 43 4q6 -2 10 -4h177v-8h-146q35 -8 62 -45q4 -6 7 -11t4 -7t3 -2l2 -5q16 -18 15 -42.5t-17 -41.5 q-20 -18 -45 -16q4 -84 -6 -180h123v-8h-125q-10 -80 -33 -160q12 -90 37 -193h119v-8h-117q27 -115 86 -323q0 -2 2 -7h33v-24h-35q-8 -33 -41 -43q-25 -6 -46.5 5t-27.5 36v2zM0 1432v8h924v-8h-924zM143 354q-12 -98 23 -164q37 -74 125 -63q88 8 155 76q60 61 111 149z M145 362l416 -2q49 93 82 199q-10 76 -14 148v6l-312 2l-16 -21q-131 -170 -156 -332zM238 1255.5q0 24.5 17 42t42 17.5t42 -17.5t17 -42t-17 -42t-42 -17.5t-42 17.5t-17 42zM324 723l305 -2q2 113 10 209q2 10 2 22q-162 -41 -317 -229zM373 23l395 -3q-55 199 -84 320 q-66 -133 -152 -219q-68 -68 -159 -98zM598 1239q0 25 17.5 42t42 17t42 -17t17.5 -42t-17.5 -42t-42 -17t-42 17t-17.5 42z" />
<glyph unicode="&#xe8;" d="M0 0v25h190q-70 37 -114 106q-94 141 -68 365q14 113 58 221h-64v8h68q98 240 282 346h-348v8h363q53 27 110 41q121 29 234 -43h211v-8h-199q57 -39 98 -96q88 -123 70 -254h33v-8h-35q-10 -57 -43 -107q-10 -16 -33 -29q-12 -4 -29 -10q-27 -8 -71 -18 q-74 -16 -199 -41q-57 -10 -135 -22.5t-127 -21.5t-66 -11q-37 -8 -59 22q-8 -57 -4 -111l799 -4v-8h-150q4 0 6 -2q20 -14 26.5 -37.5t-5.5 -44.5q-55 -92 -113.5 -151.5t-136.5 -91.5l377 -3v-24l-453 2q-27 -6 -57 -10q-88 -10 -164 10zM0 1432v8h301l-68 69 q-16 18 -15 43t18.5 41.5t42 15.5t40.5 -18q78 -84 164 -151h441v-8h-430q102 -80 215 -134q23 -10 31 -33.5t-2.5 -45t-34 -29.5t-44.5 2q-188 88 -350 240h-309zM125 354q8 -96 49 -159q72 -106 229 -89q100 12 164 64q61 49 129 158q11 16 27 22zM139 557q11 6 23 8 q16 4 67 13l127 20l138 25q123 23 192 39l62 16q6 2 8 4q10 12 14 31l-575 2q-35 -76 -56 -158zM199 723l573 -4q6 41 -6 92t-41 92q-43 59 -102.5 88t-116.5 15q-94 -23 -174 -98.5t-133 -184.5z" />
<glyph unicode="&#xe9;" d="M0 0v25h190q-70 37 -114 106q-94 141 -68 365q14 113 58 221h-64v8h68q98 240 282 346h-348v8h363q53 27 110 41q121 29 234 -43h211v-8h-199q57 -39 98 -96q88 -123 70 -254h33v-8h-35q-10 -57 -43 -107q-10 -16 -33 -29q-12 -4 -29 -10q-27 -8 -71 -18 q-74 -16 -199 -41q-57 -10 -135 -22.5t-127 -21.5t-66 -11q-37 -8 -59 22q-8 -57 -4 -111l799 -4v-8h-150q4 0 6 -2q20 -14 26.5 -37.5t-5.5 -44.5q-55 -92 -113.5 -151.5t-136.5 -91.5l377 -3v-24l-453 2q-27 -6 -57 -10q-88 -10 -164 10zM0 1432v8h500q84 72 143 133 q18 16 43 16t42 -17.5t17 -42t-16 -42.5l-51 -47h246v-8h-254l-131 -115l-193 -158q-18 -16 -42.5 -14t-41 20.5t-14.5 43t20 40.5l195 160l26 23h-489zM125 354q8 -96 49 -159q72 -106 229 -89q100 12 164 64q61 49 129 158q11 16 27 22zM139 557q11 6 23 8q16 4 67 13 l127 20l138 25q123 23 192 39l62 16q6 2 8 4q10 12 14 31l-575 2q-35 -76 -56 -158zM199 723l573 -4q6 41 -6 92t-41 92q-43 59 -102.5 88t-116.5 15q-94 -23 -174 -98.5t-133 -184.5z" />
<glyph unicode="&#xea;" d="M0 0v25h190q-70 37 -114 106q-94 141 -68 365q14 113 58 221h-64v8h68q98 240 282 346h-348v8h363q53 27 110 41q121 29 234 -43h211v-8h-199q57 -39 98 -96q88 -123 70 -254h33v-8h-35q-10 -57 -43 -107q-10 -16 -33 -29q-12 -4 -29 -10q-27 -8 -71 -18 q-74 -16 -199 -41q-57 -10 -135 -22.5t-127 -21.5t-66 -11q-37 -8 -59 22q-8 -57 -4 -111l799 -4v-8h-150q4 0 6 -2q20 -14 26.5 -37.5t-5.5 -44.5q-55 -92 -113.5 -151.5t-136.5 -91.5l377 -3v-24l-453 2q-27 -6 -57 -10q-88 -10 -164 10zM0 1432v8h358q63 59 111 110 l10 23q10 20 25 33q35 29 76 12q51 -25 45 -92l-2 -21q8 -31 26 -65h275v-8h-271q49 -100 111 -154q18 -16 20 -41t-14 -43t-40.5 -20.5t-43.5 14.5q-102 88 -164 244h-2l-90 -86q-45 -43 -117 -105l-90 -78q-18 -16 -42.5 -14t-41 20.5t-14.5 43t20 40.5l205 179h-350z M125 354q8 -96 49 -159q72 -106 229 -89q100 12 164 64q61 49 129 158q11 16 27 22zM139 557q11 6 23 8q16 4 67 13l127 20l138 25q123 23 192 39l62 16q6 2 8 4q10 12 14 31l-575 2q-35 -76 -56 -158zM199 723l573 -4q6 41 -6 92t-41 92q-43 59 -102.5 88t-116.5 15 q-94 -23 -174 -98.5t-133 -184.5z" />
<glyph unicode="&#x2000;" horiz-adv-x="910" />
<glyph unicode="&#x2001;" horiz-adv-x="1821" />
<glyph unicode="&#x2002;" horiz-adv-x="910" />
<glyph unicode="&#x2003;" horiz-adv-x="1821" />
<glyph unicode="&#x2004;" horiz-adv-x="607" />
<glyph unicode="&#x2005;" horiz-adv-x="455" />
<glyph unicode="&#x2006;" horiz-adv-x="303" />
<glyph unicode="&#x2007;" horiz-adv-x="303" />
<glyph unicode="&#x2008;" horiz-adv-x="227" />
<glyph unicode="&#x2009;" horiz-adv-x="364" />
<glyph unicode="&#x200a;" horiz-adv-x="101" />
<glyph unicode="&#x2010;" d="M0 0v25l926 -5v-24zM0 1432v8h924v-8h-924zM2 717v8l922 -6v-8zM4 1071v8l918 -2v-8zM6 354v8l916 -4v-8zM80 589.5q-2 24.5 14 43t41 20.5q33 2 289 33q182 20 301 21q25 0 42 -17.5t17 -42t-17 -42t-42 -17.5q-102 0 -287 -21l-295 -32q-25 -2 -43 14t-20 40.5z" />
<glyph unicode="&#x2011;" d="M0 0v25l926 -5v-24zM0 1432v8h924v-8h-924zM2 717v8l922 -6v-8zM4 1071v8l918 -2v-8zM6 354v8l916 -4v-8zM80 589.5q-2 24.5 14 43t41 20.5q33 2 289 33q182 20 301 21q25 0 42 -17.5t17 -42t-17 -42t-42 -17.5q-102 0 -287 -21l-295 -32q-25 -2 -43 14t-20 40.5z" />
<glyph unicode="&#x2012;" d="M0 0v25l926 -5v-24zM0 1432v8h924v-8h-924zM2 717v8l922 -6v-8zM4 1071v8l918 -2v-8zM6 354v8l916 -4v-8zM80 589.5q-2 24.5 14 43t41 20.5q33 2 289 33q182 20 301 21q25 0 42 -17.5t17 -42t-17 -42t-42 -17.5q-102 0 -287 -21l-295 -32q-25 -2 -43 14t-20 40.5z" />
<glyph unicode="&#x2013;" horiz-adv-x="997" d="M0 0v25l1024 -5v-24zM0 1432v8h1022v-8h-1022zM2 717v8l1020 -6v-8zM4 1071v8l1016 -2v-8zM7 354v8l1013 -4v-8zM88.5 589.5q-2.5 24.5 15.5 43t45 20.5q37 2 320 33q201 20 333 21q27 0 46 -17.5t19 -42t-19 -42t-46 -17.5q-113 0 -318 -21l-326 -32q-28 -2 -47.5 14 t-22 40.5z" />
<glyph unicode="&#x2014;" horiz-adv-x="2021" d="M0 0v25l2048 -5v-24zM0 1432v8h2044v-8h-2044zM4 717v8l2040 -6v-8zM9 1071v8l2030 -2v-8zM13 354v8l2026 -4v-8zM177 589.5q-4 24.5 31 43t91 20.5q73 2 639 33q402 20 665 21q56 0 93.5 -17.5t37.5 -42t-37.5 -42t-93.5 -17.5q-225 0 -634 -21l-653 -32q-55 -2 -95 14 t-44 40.5z" />
<glyph unicode="&#x2018;" d="M0 0v25l926 -5v-24zM0 1432v8h270l43 88q10 20 34 28.5t45.5 -2t29.5 -34t-2 -45.5l-17 -35h521v-8h-525q-109 -225 -123 -353l646 -2v-8l-646 2q-6 -55 0 -106q2 -23 -13 -42.5t-38.5 -22.5t-43 12.5t-23.5 39.5q-6 57 -2 119h-152v8h154q14 145 110 353h-268zM2 717v8 l922 -6v-8zM6 354v8l916 -4v-8z" />
<glyph unicode="&#x2019;" d="M0 0v25l926 -5v-24zM0 1432v8h332q0 23 -2 45t14 41.5t40 21.5t43 -14t22 -41q2 -27 2 -53h473v-8h-473q2 -162 -66 -353l537 -2v-8l-541 2q-20 -59 -55 -141q-10 -23 -33 -32t-45.5 0t-31.5 31.5t-1 45.5q25 55 39 96h-250v8h254q76 199 74 353h-332zM2 717v8l922 -6v-8 zM6 354v8l916 -4v-8z" />
<glyph unicode="&#x201c;" d="M0 0v25l926 -5v-24zM0 1432v8h244q10 35 20 69q6 23 27.5 35t45 6t36 -27.5t6.5 -45.5l-10 -37h168l65 127q12 23 36 30t45.5 -4.5t28.5 -35t-3 -44.5l-39 -73h254v-8h-258q-119 -227 -152 -355h408v-8h-410q-14 -53 -18 -113q-2 -25 -20.5 -41t-43 -14t-41 20.5 t-14.5 43.5q4 55 16 106h-127q-8 -53 -10 -102q0 -25 -18.5 -41.5t-43 -16.5t-41 18.5t-16.5 43.5q2 47 8 98h-139v8h141q6 43 19.5 96.5t21.5 79.5l31 97q20 70 25 80h-242zM2 717v8l922 -6v-8zM6 354v8l916 -4v-8zM266 1079h127q33 146 139 353h-165l-37 -115 q-25 -76 -40.5 -131.5t-23.5 -106.5z" />
<glyph unicode="&#x201d;" d="M0 0v25l926 -5v-24zM0 1432v8h240q-2 39 -13 80q-6 25 6.5 45t37 26t45 -6t26.5 -37q14 -53 16 -108h197q14 68 25 133q4 25 24.5 39t45 10t38.5 -24.5t10 -45.5q-10 -55 -22 -112h248v-8h-250q-37 -174 -99 -355h347v-8h-349l-55 -149q-8 -23 -30.5 -32t-46 -1t-33 30.5 t-0.5 47.5q20 53 38 106h-145l-18 -63q-6 -25 -28 -37.5t-45.5 -6t-35.5 28t-6 43.5l8 35h-172v8h176q2 10 11.5 42t11.5 42.5t10 40t9 38.5t8.5 39t6.5 37t4 36.5t2 38t-1 39.5h-242zM2 717v8l922 -6v-8zM6 354v8l916 -4v-8zM303 1079h148q63 179 102 353h-193 q2 -59 -7 -127t-19 -109t-31 -117z" />
<glyph unicode="&#x202f;" horiz-adv-x="364" />
<glyph unicode="&#x205f;" horiz-adv-x="455" />
<glyph unicode="&#x25fc;" horiz-adv-x="1443" d="M0 0v1444h1444v-1444h-1444z" />
</font>
</defs>
</svg>
